<svg width="26" height="24" viewBox="0 0 26 24" fill="none" xmlns="http://www.w3.org/2000/svg">
<path d="M1.99983 13.6H20.976L15.1678 20.576C15.0334 20.7378 14.9321 20.9245 14.8697 21.1253C14.8075 21.3263 14.7854 21.5376 14.8046 21.7471C14.8437 22.1701 15.0491 22.5604 15.376 22.832C15.7027 23.1036 16.1238 23.2343 16.547 23.1952C16.9701 23.1562 17.3603 22.9508 17.632 22.624L25.632 13.0241C25.6857 12.9476 25.7339 12.8674 25.776 12.7841C25.776 12.7041 25.856 12.6561 25.888 12.5761C25.9605 12.3925 25.9984 12.1973 26 12C25.9984 11.8028 25.9605 11.6074 25.888 11.4241C25.888 11.3441 25.808 11.2961 25.776 11.2161C25.7339 11.1325 25.6857 11.0524 25.632 10.9761L17.632 1.37605C17.4814 1.19541 17.2931 1.05013 17.0801 0.950612C16.8672 0.851092 16.635 0.799572 16.4 0.800052C16.0261 0.799252 15.6638 0.929492 15.376 1.16805C15.2139 1.30229 15.08 1.46725 14.9817 1.65349C14.8837 1.83957 14.8232 2.04325 14.8038 2.25285C14.7845 2.46245 14.8067 2.67365 14.8693 2.87461C14.9317 3.07557 15.0331 3.26229 15.1678 3.42405L20.976 10.4H1.99983C1.57551 10.4 1.16863 10.5685 0.868466 10.8687C0.568466 11.1687 0.399826 11.5756 0.399826 12C0.399826 12.4244 0.568466 12.8312 0.868466 13.1314C1.16863 13.4314 1.57551 13.6 1.99983 13.6Z" fill="white"/>
</svg>
