<svg width="49" height="48" viewBox="0 0 49 48" fill="none" xmlns="http://www.w3.org/2000/svg">
<path d="M23.48 33.38C22.02 32.52 20.32 32 18.5 32C12.98 32 8.5 36.48 8.5 42H20.5C20.5 38.74 21.62 35.76 23.48 33.38Z" fill="#E9F7E2"/>
<path d="M19.48 29.38C18.02 28.52 16.32 28 14.5 28C8.98 28 4.5 32.48 4.5 38H16.5C16.5 34.74 17.62 31.76 19.48 29.38Z" stroke="#465B43" stroke-miterlimit="10" stroke-linecap="round" stroke-linejoin="round"/>
<path d="M18.5 32C21.2614 32 23.5 29.7614 23.5 27C23.5 24.2386 21.2614 22 18.5 22C15.7386 22 13.5 24.2386 13.5 27C13.5 29.7614 15.7386 32 18.5 32Z" fill="#E9F7E2"/>
<path d="M14.5 28C17.2614 28 19.5 25.7614 19.5 23C19.5 20.2386 17.2614 18 14.5 18C11.7386 18 9.5 20.2386 9.5 23C9.5 25.7614 11.7386 28 14.5 28Z" stroke="#465B43" stroke-miterlimit="10" stroke-linecap="round" stroke-linejoin="round"/>
<path d="M34.5 28C26.76 28 20.5 34.26 20.5 42C20.52 42 48.5 42 48.5 42C48.5 34.26 42.24 28 34.5 28Z" fill="#E9F7E2"/>
<path d="M30.5 24C22.76 24 16.5 30.26 16.5 38C16.52 38 44.5 38 44.5 38C44.5 30.26 38.24 24 30.5 24Z" stroke="#465B43" stroke-miterlimit="10" stroke-linecap="round" stroke-linejoin="round"/>
<path d="M34.5 28C38.366 28 41.5 24.866 41.5 21C41.5 17.134 38.366 14 34.5 14C30.634 14 27.5 17.134 27.5 21C27.5 24.866 30.634 28 34.5 28Z" fill="#E9F7E2"/>
<path d="M30.5 24C34.366 24 37.5 20.866 37.5 17C37.5 13.134 34.366 10 30.5 10C26.634 10 23.5 13.134 23.5 17C23.5 20.866 26.634 24 30.5 24Z" stroke="#465B43" stroke-miterlimit="10" stroke-linecap="round" stroke-linejoin="round"/>
</svg>
