<svg width="49" height="48" viewBox="0 0 49 48" fill="none" xmlns="http://www.w3.org/2000/svg">
<path d="M8.5 44V12C13.44 13.98 20.56 15.26 28.5 15.26C36.44 15.26 43.56 13.98 48.5 12V44C43.56 42.02 36.44 40.74 28.5 40.74C20.56 40.74 13.44 42.02 8.5 44Z" fill="#E9F7E2"/>
<path d="M4.5 40V8C9.44 9.98 16.56 11.26 24.5 11.26C32.44 11.26 39.56 9.98 44.5 8V40C39.56 38.02 32.44 36.74 24.5 36.74C16.56 36.74 9.44 38.02 4.5 40Z" stroke="#465B43" stroke-miterlimit="10" stroke-linecap="round" stroke-linejoin="round"/>
<path d="M10.5 24H38.5" stroke="#465B43" stroke-linecap="round" stroke-linejoin="round"/>
<path d="M14.5 28L10.5 24L14.5 20" stroke="#465B43" stroke-linecap="round" stroke-linejoin="round"/>
<path d="M34.5 28L38.5 24L34.5 20" stroke="#465B43" stroke-linecap="round" stroke-linejoin="round"/>
</svg>
