<svg width="180" height="72" viewBox="0 0 180 72" fill="none" xmlns="http://www.w3.org/2000/svg">
<g clip-path="url(#clip0_1_218)">
<path d="M183.147 39.4368H32.3195V79.3135H188.156V39.4368H183.147Z" fill="#080A37"/>
<path d="M20.8232 28.801H174.432V66.4615H20.8232V28.801Z" fill="#EE746E"/>
<path d="M19.7106 27.6951H175.545V67.5651H19.7106V27.6951ZM20.8243 28.7976H174.431V66.4626H20.8243V28.7976Z" stroke="#090B37"/>
<path d="M146.476 61.8782C146.087 61.8782 145.746 61.849 145.454 61.7893C145.161 61.75 144.879 61.6791 144.605 61.5801L145.22 58.9037C145.356 58.9442 145.512 58.9836 145.688 59.023C145.882 59.0826 146.068 59.1118 146.243 59.1118C147.003 59.1118 147.607 58.8756 148.056 58.3997C148.524 57.9441 148.875 57.349 149.109 56.6155L149.372 55.6941L143.728 41.2727H147.149L149.634 48.439C149.849 49.0723 150.054 49.7462 150.248 50.4595C150.463 51.1536 150.676 51.8477 150.892 52.5418H151.009C151.184 51.868 151.36 51.184 151.535 50.4898C151.73 49.7766 151.916 49.0926 152.091 48.439L154.254 41.2727H157.5L152.296 56.5255C152.003 57.358 151.682 58.1016 151.329 58.7563C150.98 59.41 150.57 59.9657 150.102 60.4213C149.654 60.8972 149.127 61.2527 148.524 61.4912C147.939 61.7488 147.256 61.8782 146.476 61.8782Z" fill="#080A37"/>
<path d="M120.87 55.873V41.2717H123.647L123.881 43.2652H123.998C124.602 42.6115 125.254 42.0558 125.956 41.599C126.677 41.1445 127.487 40.915 128.384 40.915C129.436 40.915 130.274 41.1445 130.897 41.599C131.541 42.0558 132.029 42.6993 132.361 43.5318C133.042 42.778 133.755 42.1559 134.495 41.6598C135.236 41.1648 136.066 40.915 136.98 40.915C138.502 40.915 139.622 41.4213 140.343 42.4327C141.063 43.4249 141.424 44.8514 141.424 46.7144V55.873H138.034V47.161C138.034 45.9517 137.849 45.0989 137.479 44.6028C137.126 44.1078 136.582 43.8592 135.842 43.8592C134.945 43.8592 133.938 44.4644 132.829 45.6749V55.873H129.467V47.161C129.467 45.9517 129.281 45.0989 128.909 44.6028C128.56 44.1078 128.004 43.8592 127.243 43.8592C126.346 43.8592 125.343 44.4644 124.231 45.6749V55.873H120.87Z" fill="#080A37"/>
<path d="M112.191 56.2285C111.196 56.2285 110.269 56.0609 109.412 55.7234C108.555 55.3668 107.803 54.8605 107.161 54.2069C106.516 53.5522 106.01 52.759 105.64 51.8275C105.289 50.8758 105.113 49.7958 105.113 48.5864C105.113 47.3973 105.298 46.3263 105.669 45.3757C106.039 44.4239 106.526 43.6207 107.131 42.967C107.755 42.3123 108.467 41.8072 109.266 41.4494C110.066 41.0928 110.885 40.915 111.723 40.915C112.697 40.915 113.553 41.0827 114.295 41.4202C115.036 41.7577 115.649 42.2335 116.137 42.8478C116.644 43.462 117.025 44.1955 117.279 45.0483C117.531 45.8999 117.659 46.8325 117.659 47.8428C117.659 48.1803 117.638 48.4975 117.6 48.7945C117.578 49.0915 117.55 49.33 117.512 49.5089H108.388C108.545 50.8173 108.992 51.8275 109.734 52.5419C110.493 53.2349 111.46 53.5825 112.63 53.5825C113.254 53.5825 113.828 53.4937 114.355 53.3137C114.9 53.1168 115.436 52.8479 115.963 52.5115L117.103 54.6535C116.421 55.1092 115.659 55.4849 114.821 55.783C113.983 56.08 113.108 56.2285 112.191 56.2285ZM108.359 47.1892H114.733C114.733 46.0585 114.49 45.1765 114.004 44.542C113.536 43.8884 112.803 43.561 111.809 43.561C110.952 43.561 110.202 43.8693 109.557 44.4835C108.915 45.0978 108.515 45.9989 108.359 47.1892Z" fill="#080A37"/>
<path d="M94.5745 56.2296C92.7622 56.2296 91.3188 55.5648 90.2467 54.2373C89.1948 52.8895 88.6683 51.0051 88.6683 48.5875C88.6683 47.3973 88.8337 46.3274 89.1656 45.3756C89.5166 44.425 89.9744 43.6218 90.5403 42.9681C91.105 42.3134 91.7485 41.8071 92.4685 41.4505C93.211 41.0939 93.9693 40.915 94.75 40.915C95.5679 40.915 96.2609 41.0635 96.8257 41.3616C97.3904 41.6395 97.9563 42.0254 98.5221 42.5215L98.4051 40.1714V34.8794H101.768V55.8719H98.989L98.755 54.2969H98.6391C98.1126 54.8324 97.4984 55.288 96.7964 55.6649C96.0955 56.0418 95.3542 56.2296 94.5745 56.2296ZM95.3935 53.4048C96.4657 53.4048 97.4691 52.8603 98.4051 51.769V44.9594C97.8989 44.5038 97.4005 44.1865 96.9145 44.0076C96.4465 43.8288 95.9684 43.7399 95.4813 43.7399C94.5453 43.7399 93.7555 44.1561 93.1132 44.9898C92.4685 45.8223 92.1479 47.0114 92.1479 48.5571C92.1479 50.1445 92.4202 51.3528 92.9669 52.1853C93.5317 52.9986 94.3405 53.4048 95.3935 53.4048Z" fill="#080A37"/>
<path d="M77.9482 56.2285C76.6803 56.2285 75.6566 55.8415 74.8781 55.0687C74.0973 54.2767 73.7081 53.2349 73.7081 51.9468C73.7081 51.1739 73.8633 50.4888 74.1761 49.8948C74.5068 49.2805 75.0142 48.754 75.696 48.3187C76.398 47.8833 77.2743 47.5165 78.3273 47.2184C79.3995 46.9203 80.6763 46.693 82.1579 46.5344C82.1388 46.1587 82.0803 45.8009 81.9824 45.4645C81.9048 45.1068 81.7586 44.8008 81.5437 44.542C81.3491 44.2642 81.0858 44.0572 80.7551 43.9188C80.4232 43.759 80.0137 43.6803 79.5266 43.6803C78.8246 43.6803 78.1327 43.8187 77.451 44.0965C76.7872 44.3744 76.1347 44.7108 75.4912 45.1068L74.2638 42.8174C75.0626 42.3022 75.9592 41.8567 76.9537 41.4798C77.9482 41.1029 79.0192 40.915 80.1701 40.915C81.9633 40.915 83.2987 41.4595 84.1762 42.5508C85.0728 43.6207 85.5206 45.1765 85.5206 47.2184V55.8719H82.7429L82.5089 54.2665H82.3919C81.7484 54.8212 81.0566 55.2869 80.3163 55.6638C79.5941 56.0407 78.8055 56.2285 77.9482 56.2285ZM79.0293 53.5522C79.6143 53.5522 80.1408 53.4138 80.6088 53.1359C81.0959 52.8592 81.6123 52.462 82.1579 51.9468V48.6753C81.1837 48.7945 80.3647 48.9532 79.7021 49.1512C79.0395 49.3503 78.5028 49.5775 78.0933 49.8352C77.685 50.0725 77.3913 50.3504 77.217 50.6688C77.0415 50.9849 76.9537 51.3224 76.9537 51.679C76.9537 52.3327 77.1483 52.8085 77.5387 53.1067C77.928 53.4037 78.4252 53.5522 79.0293 53.5522Z" fill="#080A37"/>
<path d="M67.2427 56.2285C66.2673 56.2285 65.3516 56.0609 64.4944 55.7234C63.6562 55.3859 62.925 54.8909 62.3006 54.2362C61.6774 53.5814 61.1902 52.7793 60.8392 51.8275C60.4882 50.8758 60.3127 49.7958 60.3127 48.5864C60.3127 47.377 60.5074 46.297 60.8977 45.3453C61.2881 44.3935 61.8135 43.5914 62.4761 42.9367C63.1399 42.283 63.8992 41.7869 64.7576 41.4494C65.634 41.0928 66.5508 40.915 67.506 40.915C68.4408 40.915 69.2407 41.0725 69.9033 41.3909C70.5862 41.7082 71.1903 42.0952 71.7168 42.5508L70.0788 44.7805C69.6885 44.443 69.2992 44.1854 68.9088 44.0077C68.5387 43.8085 68.1292 43.7095 67.6815 43.7095C66.5115 43.7095 65.5665 44.1562 64.8454 45.0483C64.1242 45.9202 63.7631 47.1003 63.7631 48.5864C63.7631 50.0534 64.1141 51.2335 64.8161 52.1257C65.5372 52.9975 66.4631 53.434 67.5937 53.434C68.1585 53.434 68.685 53.3137 69.1721 53.0763C69.6795 52.8187 70.1373 52.5217 70.5468 52.1842L71.9205 54.4443C71.2387 55.0383 70.4883 55.4849 69.6693 55.783C68.8706 56.08 68.0617 56.2285 67.2427 56.2285Z" fill="#080A37"/>
<path d="M49.154 45.5241L48.4801 47.9034H53.3648L52.691 45.5241C52.3793 44.4936 52.0767 43.4327 51.7842 42.3426C51.512 41.2524 51.2386 40.1713 50.9652 39.1014H50.8493C50.576 40.1915 50.3037 41.2817 50.0315 42.3718C49.7581 43.4428 49.4656 44.4936 49.154 45.5241ZM42.7505 55.8718L48.9773 36.425H52.9553L59.1822 55.8718H55.6148L54.1242 50.6091H47.6915L46.2009 55.8718H42.7505Z" fill="#080A37"/>
<path d="M11.0363 30.8509L17.8571 19.6357L31.5 16.2697L4.78351 0.568115L11.0363 30.8509Z" fill="#080A37"/>
<path d="M6.5441 29.9711L13.0016 19.4197L25.9177 15.903L0.803223 1.13062L6.5441 29.9711Z" fill="#EF746F"/>
<path d="M1.60538 2.25503L24.4811 15.7112L12.6315 18.9377L6.8175 28.4372L1.60538 2.25503ZM6.26962 31.5039L13.3717 19.8995L27.351 16.0925L0 0.00390625L6.26962 31.5039Z" fill="#080A37"/>
</g>
<defs>
<clipPath id="clip0_1_218">
<rect width="180" height="72" fill="white"/>
</clipPath>
</defs>
</svg>
