<svg width="60" height="60" viewBox="0 0 60 60" fill="none" xmlns="http://www.w3.org/2000/svg">
<path fill-rule="evenodd" clip-rule="evenodd" d="M0 30C0 13.4315 13.4315 0 30 0C46.5685 0 60 13.4315 60 30C60 46.5685 46.5685 60 30 60C13.4315 60 0 46.5685 0 30Z" fill="#EBECF4"/>
<path fill-rule="evenodd" clip-rule="evenodd" d="M29.5956 24.1553L29.6563 25.1562L28.6447 25.0336C24.9626 24.5638 21.7458 22.9707 19.0145 20.295L17.6792 18.9674L17.3353 19.9478C16.6069 22.1333 17.0723 24.4413 18.5896 25.9936C19.3989 26.8514 19.2168 26.974 17.8208 26.4634C17.3353 26.3 16.9104 26.1774 16.87 26.2387C16.7283 26.3817 17.2139 28.2403 17.5983 28.9756C18.1243 29.9969 19.1966 30.9977 20.37 31.59L21.3614 32.0598L20.1879 32.0802C19.055 32.0802 19.0145 32.1007 19.1359 32.5296C19.5405 33.8572 21.1388 35.2665 22.9192 35.8793L24.1735 36.3082L23.081 36.9618C21.4625 37.9014 19.5608 38.4324 17.659 38.4733C16.7486 38.4937 16 38.5754 16 38.6367C16 38.8409 18.4682 39.9847 19.9047 40.4341C24.214 41.7617 29.3326 41.1898 33.1766 38.9226C35.9078 37.309 38.6391 34.1023 39.9137 30.9977C40.6016 29.3433 41.2894 26.3204 41.2894 24.8702C41.2894 23.9307 41.3501 23.8081 42.4831 22.6847C43.1507 22.0311 43.7779 21.3163 43.8993 21.112C44.1016 20.7239 44.0814 20.7239 43.0496 21.0712C41.3299 21.6839 41.0871 21.6022 41.9368 20.6831C42.564 20.0295 43.3126 18.8448 43.3126 18.4976C43.3126 18.4363 43.0091 18.5384 42.6652 18.7223C42.301 18.9265 41.4917 19.2329 40.8848 19.4167L39.7923 19.764L38.801 19.0899C38.2547 18.7223 37.4859 18.3138 37.0813 18.1912C36.0495 17.9053 34.4714 17.9461 33.5407 18.2729C31.0118 19.1921 29.4135 21.5614 29.5956 24.1553Z" fill="#090B37"/>
</svg>
