<svg width="60" height="60" viewBox="0 0 60 60" fill="none" xmlns="http://www.w3.org/2000/svg">
<path fill-rule="evenodd" clip-rule="evenodd" d="M0 30C0 13.4315 13.4315 0 30 0C46.5685 0 60 13.4315 60 30C60 46.5685 46.5685 60 30 60C13.4315 60 0 46.5685 0 30Z" fill="#EBECF4"/>
<path d="M41.8136 18.1871C38.8974 15.2716 34.1697 15.2716 31.2543 18.1871L27.088 22.3517C27.4178 22.3159 27.7511 22.3004 28.086 22.3004C29.1404 22.3004 30.1657 22.468 31.1363 22.7909L33.4972 20.4308C34.308 19.6191 35.3864 19.1731 36.533 19.1731C37.6798 19.1731 38.7582 19.6191 39.569 20.4308C40.3799 21.2409 40.8258 22.3175 40.8258 23.4659C40.8258 24.6126 40.3799 25.6909 39.569 26.5009L34.9498 31.1202C34.139 31.932 33.0607 32.3779 31.914 32.3779C30.7655 32.3779 29.689 31.932 28.8773 31.1202C28.4825 30.7271 28.1749 30.2691 27.963 29.77C27.4367 29.7991 26.9445 30.0178 26.5685 30.3938L25.3381 31.6258C25.6748 32.2495 26.1072 32.8374 26.6335 33.3656C29.5489 36.2811 34.2774 36.2811 37.1936 33.3656L41.8136 28.7447C44.7281 25.8294 44.7281 21.1025 41.8136 18.1871Z" fill="#090B37"/>
<path d="M31.9635 37.698C30.9074 37.698 29.8718 37.5271 28.879 37.1904L26.5019 39.5676C25.6919 40.3794 24.6136 40.8254 23.4669 40.8254C22.3203 40.8254 21.2437 40.3794 20.4319 39.5676C19.6202 38.7576 19.1741 37.6793 19.1741 36.5326C19.1741 35.3859 19.6202 34.3075 20.4319 33.4959L25.0511 28.8767C25.8628 28.0666 26.9394 27.6206 28.0861 27.6206C29.2345 27.6206 30.3111 28.0666 31.1219 28.8767C31.5168 29.2714 31.8251 29.7294 32.038 30.2284C32.566 30.201 33.059 29.9806 33.435 29.6047L34.6637 28.3743C34.3271 27.7487 33.8938 27.1609 33.3666 26.6329C30.4513 23.7174 25.7228 23.7174 22.8074 26.6329L18.1882 31.2538C15.2711 34.1693 15.2711 38.896 18.1882 41.8132C21.1036 44.7287 25.8304 44.7287 28.7458 41.8132L32.9052 37.6537C32.5951 37.6826 32.2815 37.6982 31.9653 37.6982L31.9635 37.698Z" fill="#090B37"/>
</svg>
