<svg width="1158" height="566" viewBox="0 0 1158 566" fill="none" xmlns="http://www.w3.org/2000/svg">
<g filter="url(#filter0_d_1_90)">
<path d="M772 184C772 170.745 782.745 160 796 160H1128C1141.25 160 1152 170.745 1152 184V536C1152 549.255 1141.25 560 1128 560H796C782.745 560 772 549.255 772 536V184Z" fill="#E8E9F1"/>
<path d="M796 161H1128C1140.7 161 1151 171.297 1151 184V536C1151 548.703 1140.7 559 1128 559H796C783.297 559 773 548.703 773 536V184C773 171.297 783.297 161 796 161Z" stroke="#090B37" stroke-width="2"/>
</g>
<path d="M821.936 237.768C817.797 237.768 814.576 235.933 812.272 232.264C809.968 228.595 808.816 223.325 808.816 216.456C808.816 209.587 809.968 204.36 812.272 200.776C814.576 197.192 817.797 195.4 821.936 195.4C826.032 195.4 829.232 197.192 831.536 200.776C833.84 204.36 834.992 209.587 834.992 216.456C834.992 223.325 833.84 228.595 831.536 232.264C829.232 235.933 826.032 237.768 821.936 237.768ZM821.936 233.544C823.131 233.544 824.197 233.224 825.136 232.584C826.117 231.901 826.949 230.877 827.632 229.512C828.357 228.104 828.912 226.333 829.296 224.2C829.68 222.024 829.872 219.443 829.872 216.456C829.872 213.469 829.68 210.909 829.296 208.776C828.912 206.643 828.357 204.915 827.632 203.592C826.949 202.227 826.117 201.224 825.136 200.584C824.197 199.944 823.131 199.624 821.936 199.624C820.741 199.624 819.653 199.944 818.672 200.584C817.691 201.224 816.837 202.227 816.112 203.592C815.429 204.915 814.896 206.643 814.512 208.776C814.128 210.909 813.936 213.469 813.936 216.456C813.936 222.429 814.661 226.781 816.112 229.512C817.605 232.2 819.547 233.544 821.936 233.544ZM854.965 237.768C852.959 237.768 851.103 237.363 849.397 236.552C847.69 235.741 846.197 234.525 844.917 232.904C843.679 231.24 842.698 229.192 841.973 226.76C841.247 224.285 840.885 221.405 840.885 218.12C840.885 214.024 841.311 210.547 842.165 207.688C843.018 204.787 844.17 202.44 845.621 200.648C847.071 198.813 848.714 197.491 850.549 196.68C852.426 195.827 854.389 195.4 856.437 195.4C858.655 195.4 860.554 195.827 862.133 196.68C863.754 197.491 865.141 198.515 866.293 199.752L863.349 203.016C862.495 202.035 861.471 201.267 860.277 200.712C859.125 200.115 857.909 199.816 856.628 199.816C855.221 199.816 853.877 200.115 852.597 200.712C851.317 201.309 850.186 202.291 849.205 203.656C848.223 205.021 847.434 206.813 846.837 209.032C846.239 211.208 845.919 213.917 845.877 217.16C847.157 215.581 848.65 214.344 850.357 213.448C852.063 212.509 853.749 212.04 855.413 212.04C858.954 212.04 861.77 213.085 863.861 215.176C865.994 217.267 867.061 220.424 867.061 224.648C867.061 226.611 866.741 228.403 866.101 230.024C865.461 231.603 864.586 232.968 863.477 234.12C862.367 235.272 861.087 236.168 859.637 236.808C858.186 237.448 856.629 237.768 854.965 237.768ZM854.965 233.608C855.989 233.608 856.927 233.395 857.781 232.968C858.634 232.541 859.381 231.944 860.021 231.176C860.661 230.365 861.151 229.427 861.493 228.36C861.877 227.251 862.069 226.013 862.069 224.648C862.069 221.96 861.45 219.848 860.213 218.312C858.975 216.776 857.077 216.008 854.517 216.008C853.194 216.008 851.765 216.435 850.229 217.288C848.693 218.099 847.285 219.464 846.005 221.384C846.346 225.395 847.263 228.445 848.757 230.536C850.293 232.584 852.362 233.608 854.965 233.608Z" fill="#090B37"/>
<path d="M1092 342.614L1122.83 336.081L1122.83 340.123L1106.05 343.366C1104.36 343.648 1102.7 343.946 1101.07 344.259C1099.44 344.572 1097.78 344.87 1096.09 345.152L1096.09 345.34C1097.78 345.685 1099.44 346.045 1101.07 346.421C1102.73 346.797 1104.39 347.157 1106.05 347.502L1122.83 351.779L1122.83 355.351L1106.05 359.628C1104.42 360.004 1102.78 360.38 1101.12 360.756C1099.46 361.132 1097.78 361.508 1096.09 361.884L1096.09 362.072C1097.78 362.354 1099.44 362.636 1101.07 362.918C1102.73 363.2 1104.39 363.498 1106.05 363.811L1122.83 367.054L1122.83 370.814L1092 364.422L1092 359.722L1110.56 355.069C1111.76 354.787 1112.92 354.521 1114.04 354.27C1115.2 354.051 1116.38 353.816 1117.57 353.565L1117.57 353.377C1116.38 353.126 1115.2 352.86 1114.04 352.578C1112.92 352.327 1111.76 352.077 1110.56 351.826L1092 347.267L1092 342.614ZM1091.44 384.685C1091.44 383.275 1091.7 381.928 1092.23 380.643C1092.77 379.39 1093.54 378.278 1094.54 377.306C1095.57 376.335 1096.83 375.552 1098.3 374.956C1099.8 374.392 1101.49 374.11 1103.37 374.11C1105.29 374.11 1106.98 374.392 1108.45 374.956C1109.95 375.552 1111.22 376.335 1112.26 377.306C1113.29 378.278 1114.07 379.39 1114.61 380.643C1115.14 381.928 1115.41 383.275 1115.41 384.685C1115.41 386.095 1115.14 387.427 1114.61 388.68C1114.07 389.965 1113.29 391.093 1112.26 392.064C1111.22 393.036 1109.95 393.803 1108.45 394.367C1106.98 394.963 1105.29 395.26 1103.37 395.26C1101.49 395.26 1099.8 394.963 1098.3 394.367C1096.83 393.803 1095.57 393.036 1094.54 392.064C1093.54 391.093 1092.77 389.965 1092.23 388.68C1091.7 387.427 1091.44 386.095 1091.44 384.685ZM1094.63 384.685C1094.63 385.657 1094.84 386.55 1095.24 387.364C1095.68 388.179 1096.28 388.868 1097.03 389.432C1097.81 390.028 1098.74 390.482 1099.8 390.795C1100.87 391.109 1102.06 391.265 1103.37 391.265C1104.69 391.265 1105.88 391.109 1106.95 390.795C1108.04 390.482 1108.98 390.028 1109.77 389.432C1110.55 388.868 1111.14 388.179 1111.55 387.364C1111.99 386.55 1112.21 385.657 1112.21 384.685C1112.21 383.714 1111.99 382.821 1111.55 382.006C1111.14 381.192 1110.55 380.487 1109.77 379.891C1108.98 379.327 1108.04 378.889 1106.95 378.575C1105.88 378.262 1104.69 378.105 1103.37 378.105C1102.06 378.105 1100.87 378.262 1099.8 378.575C1098.74 378.889 1097.81 379.327 1097.03 379.891C1096.28 380.487 1095.68 381.192 1095.24 382.006C1094.84 382.821 1094.63 383.714 1094.63 384.685ZM1092 401.276L1114.84 401.276L1114.84 404.472L1110.71 404.801L1110.71 404.942C1112.15 405.725 1113.29 406.665 1114.14 407.762C1114.98 408.89 1115.41 410.112 1115.41 411.428C1115.41 412.337 1115.25 413.151 1114.94 413.872L1111.55 413.12C1111.68 412.744 1111.77 412.399 1111.83 412.086C1111.9 411.773 1111.93 411.381 1111.93 410.911C1111.93 409.94 1111.54 408.921 1110.75 407.856C1109.97 406.822 1108.61 405.913 1106.66 405.13L1092 405.13L1092 401.276ZM1092 417.57L1125.46 417.57L1125.46 421.377L1102.81 421.377L1102.81 421.518L1114.84 431.247L1114.84 435.524L1105.68 427.863L1092 436.558L1092 432.328L1103 425.654L1098.02 421.377L1092 421.377L1092 417.57ZM1092 441.498L1111.69 441.498L1111.69 438.396L1114.61 438.396L1114.84 441.498L1118.46 441.498C1120.81 441.498 1122.66 442.031 1124.01 443.096C1125.35 444.193 1126.03 445.885 1126.03 448.172C1126.03 448.893 1125.95 449.567 1125.79 450.193C1125.67 450.851 1125.5 451.447 1125.28 451.979L1122.31 451.133C1122.69 450.287 1122.88 449.426 1122.88 448.548C1122.88 446.418 1121.41 445.352 1118.46 445.352L1114.84 445.352L1114.84 450.193L1111.69 450.193L1111.69 445.352L1092 445.352L1092 441.498ZM1091.44 458.653C1091.44 457.18 1091.87 456.131 1092.75 455.504C1093.63 454.877 1094.91 454.564 1096.61 454.564L1125.46 454.564L1125.46 458.418L1096.32 458.418C1095.7 458.418 1095.26 458.528 1095.01 458.747C1094.76 458.966 1094.63 459.217 1094.63 459.499C1094.63 459.624 1094.63 459.734 1094.63 459.828C1094.63 459.953 1094.66 460.126 1094.73 460.345L1091.81 460.862C1091.69 460.611 1091.59 460.314 1091.53 459.969C1091.47 459.624 1091.44 459.186 1091.44 458.653ZM1091.44 475.426C1091.44 474.016 1091.7 472.669 1092.23 471.384C1092.77 470.131 1093.54 469.019 1094.54 468.047C1095.57 467.076 1096.83 466.293 1098.3 465.697C1099.8 465.133 1101.49 464.851 1103.37 464.851C1105.29 464.851 1106.98 465.133 1108.45 465.697C1109.95 466.293 1111.22 467.076 1112.26 468.047C1113.29 469.019 1114.07 470.131 1114.61 471.384C1115.14 472.669 1115.41 474.016 1115.41 475.426C1115.41 476.836 1115.14 478.168 1114.61 479.421C1114.07 480.706 1113.29 481.834 1112.26 482.805C1111.22 483.777 1109.95 484.544 1108.45 485.108C1106.98 485.704 1105.29 486.001 1103.37 486.001C1101.49 486.001 1099.8 485.704 1098.3 485.108C1096.83 484.544 1095.57 483.777 1094.54 482.805C1093.54 481.834 1092.77 480.706 1092.23 479.421C1091.7 478.168 1091.44 476.836 1091.44 475.426ZM1094.63 475.426C1094.63 476.398 1094.84 477.291 1095.24 478.105C1095.68 478.92 1096.28 479.609 1097.03 480.173C1097.81 480.769 1098.74 481.223 1099.8 481.536C1100.87 481.85 1102.06 482.006 1103.37 482.006C1104.69 482.006 1105.88 481.85 1106.95 481.536C1108.04 481.223 1108.98 480.769 1109.77 480.173C1110.55 479.609 1111.14 478.92 1111.55 478.105C1111.99 477.291 1112.21 476.398 1112.21 475.426C1112.21 474.455 1111.99 473.562 1111.55 472.747C1111.14 471.933 1110.55 471.228 1109.77 470.632C1108.98 470.068 1108.04 469.63 1106.95 469.316C1105.88 469.003 1104.69 468.846 1103.37 468.846C1102.06 468.846 1100.87 469.003 1099.8 469.316C1098.74 469.63 1097.81 470.068 1097.03 470.632C1096.28 471.228 1095.68 471.933 1095.24 472.747C1094.84 473.562 1094.63 474.455 1094.63 475.426ZM1092 495.452L1114.84 489.107L1114.84 493.055L1101.63 496.439C1100.54 496.69 1099.47 496.925 1098.44 497.144C1097.4 497.364 1096.36 497.583 1095.29 497.802L1095.29 497.99C1096.36 498.241 1097.4 498.492 1098.44 498.742C1099.5 498.993 1100.57 499.259 1101.63 499.541L1114.84 503.066L1114.84 506.826L1101.63 510.398C1100.54 510.68 1099.47 510.947 1098.44 511.197C1097.4 511.479 1096.36 511.746 1095.29 511.996L1095.29 512.184C1096.36 512.435 1097.4 512.67 1098.44 512.889C1099.47 513.109 1100.54 513.344 1101.63 513.594L1114.84 516.931L1114.84 520.597L1092 514.487L1092 509.787L1104.27 506.497C1105.36 506.215 1106.44 505.949 1107.51 505.698C1108.58 505.479 1109.69 505.228 1110.85 504.946L1110.85 504.758C1109.69 504.508 1108.56 504.257 1107.46 504.006C1106.4 503.756 1105.32 503.474 1104.22 503.16L1092 499.964L1092 495.452Z" fill="#090B37"/>
<g filter="url(#filter1_d_1_90)">
<path d="M617 152C617 138.745 627.745 128 641 128H973C986.255 128 997 138.745 997 152V504C997 517.255 986.255 528 973 528H641C627.745 528 617 517.255 617 504V152Z" fill="#BBBFFB"/>
<path d="M641 129H973C985.703 129 996 139.297 996 152V504C996 516.703 985.703 527 973 527H641C628.297 527 618 516.703 618 504V152C618 139.297 628.297 129 641 129Z" stroke="#3C2B84" stroke-width="2"/>
</g>
<path d="M666.936 205.768C662.797 205.768 659.576 203.933 657.272 200.264C654.968 196.595 653.816 191.325 653.816 184.456C653.816 177.587 654.968 172.36 657.272 168.776C659.576 165.192 662.797 163.4 666.936 163.4C671.032 163.4 674.232 165.192 676.536 168.776C678.84 172.36 679.992 177.587 679.992 184.456C679.992 191.325 678.84 196.595 676.536 200.264C674.232 203.933 671.032 205.768 666.936 205.768ZM666.936 201.544C668.131 201.544 669.197 201.224 670.136 200.584C671.117 199.901 671.949 198.877 672.632 197.512C673.357 196.104 673.912 194.333 674.296 192.2C674.68 190.024 674.872 187.443 674.872 184.456C674.872 181.469 674.68 178.909 674.296 176.776C673.912 174.643 673.357 172.915 672.632 171.592C671.949 170.227 671.117 169.224 670.136 168.584C669.197 167.944 668.131 167.624 666.936 167.624C665.741 167.624 664.653 167.944 663.672 168.584C662.691 169.224 661.837 170.227 661.112 171.592C660.429 172.915 659.896 174.643 659.512 176.776C659.128 178.909 658.936 181.469 658.936 184.456C658.936 190.429 659.661 194.781 661.112 197.512C662.605 200.2 664.547 201.544 666.936 201.544ZM697.789 205.768C696.167 205.768 694.674 205.597 693.309 205.256C691.986 204.957 690.77 204.552 689.661 204.04C688.594 203.528 687.613 202.952 686.717 202.312C685.863 201.629 685.095 200.925 684.413 200.2L686.973 196.744C688.167 197.981 689.575 199.069 691.197 200.008C692.861 200.947 694.887 201.416 697.277 201.416C698.514 201.416 699.666 201.203 700.733 200.776C701.842 200.307 702.802 199.667 703.613 198.856C704.423 198.045 705.063 197.064 705.533 195.912C706.002 194.76 706.237 193.48 706.237 192.072C706.237 189.256 705.447 187.059 703.869 185.48C702.29 183.901 700.178 183.112 697.533 183.112C696.125 183.112 694.909 183.325 693.885 183.752C692.903 184.179 691.794 184.797 690.557 185.608L687.741 183.816L689.085 164.168H709.501V168.712H693.693L692.605 180.808C693.586 180.296 694.567 179.891 695.549 179.592C696.53 179.293 697.639 179.144 698.877 179.144C700.626 179.144 702.269 179.4 703.805 179.912C705.341 180.424 706.685 181.213 707.837 182.28C708.989 183.304 709.885 184.627 710.525 186.248C711.207 187.827 711.549 189.725 711.549 191.944C711.549 194.163 711.165 196.125 710.397 197.832C709.629 199.539 708.605 200.989 707.325 202.184C706.045 203.336 704.573 204.232 702.909 204.872C701.287 205.469 699.581 205.768 697.789 205.768Z" fill="#3C2B84"/>
<path d="M938 261.23L968.832 261.23L968.832 270.019C968.832 271.742 968.675 273.309 968.362 274.719C968.049 276.16 967.532 277.382 966.811 278.385C966.122 279.388 965.197 280.171 964.038 280.735C962.879 281.299 961.453 281.581 959.761 281.581C958.132 281.581 956.722 281.299 955.531 280.735C954.34 280.202 953.353 279.435 952.57 278.432C951.787 277.429 951.191 276.223 950.784 274.813C950.408 273.434 950.22 271.899 950.22 270.207L950.22 265.131L938 265.131L938 261.23ZM953.416 265.131L953.416 269.737C953.416 272.432 953.917 274.421 954.92 275.706C955.954 277.022 957.568 277.68 959.761 277.68C961.986 277.68 963.521 276.991 964.367 275.612C965.244 274.265 965.683 272.244 965.683 269.549L965.683 265.131L953.416 265.131ZM938 287.475L960.842 287.475L960.842 290.671L956.706 291L956.706 291.141C958.147 291.924 959.291 292.864 960.137 293.961C960.983 295.089 961.406 296.311 961.406 297.627C961.406 298.536 961.249 299.35 960.936 300.071L957.552 299.319C957.677 298.943 957.771 298.598 957.834 298.285C957.897 297.972 957.928 297.58 957.928 297.11C957.928 296.139 957.536 295.12 956.753 294.055C955.97 293.021 954.607 292.112 952.664 291.329L938 291.329L938 287.475ZM937.436 312.193C937.436 310.783 937.702 309.436 938.235 308.151C938.768 306.898 939.535 305.785 940.538 304.814C941.572 303.843 942.825 303.059 944.298 302.464C945.802 301.9 947.494 301.618 949.374 301.618C951.285 301.618 952.977 301.9 954.45 302.464C955.954 303.059 957.223 303.843 958.257 304.814C959.291 305.785 960.074 306.898 960.607 308.151C961.14 309.436 961.406 310.783 961.406 312.193C961.406 313.603 961.14 314.935 960.607 316.188C960.074 317.473 959.291 318.601 958.257 319.572C957.223 320.543 955.954 321.311 954.45 321.875C952.977 322.47 951.285 322.768 949.374 322.768C947.494 322.768 945.802 322.47 944.298 321.875C942.825 321.311 941.572 320.543 940.538 319.572C939.535 318.601 938.768 317.473 938.235 316.188C937.702 314.935 937.436 313.603 937.436 312.193ZM940.632 312.193C940.632 313.164 940.836 314.057 941.243 314.872C941.682 315.687 942.277 316.376 943.029 316.94C943.812 317.535 944.737 317.99 945.802 318.303C946.867 318.616 948.058 318.773 949.374 318.773C950.69 318.773 951.881 318.616 952.946 318.303C954.043 317.99 954.983 317.535 955.766 316.94C956.549 316.376 957.145 315.687 957.552 314.872C957.991 314.057 958.21 313.164 958.21 312.193C958.21 311.222 957.991 310.329 957.552 309.514C957.145 308.699 956.549 307.994 955.766 307.399C954.983 306.835 954.043 306.396 952.946 306.083C951.881 305.77 950.69 305.613 949.374 305.613C948.058 305.613 946.867 305.77 945.802 306.083C944.737 306.396 943.812 306.835 943.029 307.399C942.277 307.994 941.682 308.699 941.243 309.514C940.836 310.329 940.632 311.222 940.632 312.193ZM937.436 335.194C937.436 333.972 937.624 332.938 938 332.092C938.376 331.278 938.893 330.604 939.551 330.071C940.209 329.57 941.008 329.21 941.948 328.99C942.888 328.771 943.922 328.661 945.05 328.661L957.693 328.661L957.693 325.277L960.607 325.277L960.842 328.849L967.234 329.319L967.234 332.562L960.842 332.562L960.842 338.719L957.693 338.719L957.693 332.562L945.003 332.562C943.593 332.562 942.496 332.813 941.713 333.314C940.961 333.847 940.585 334.771 940.585 336.087C940.585 336.495 940.648 336.933 940.773 337.403C940.898 337.873 941.039 338.296 941.196 338.672L938.282 339.424C938.063 338.798 937.875 338.108 937.718 337.356C937.53 336.636 937.436 335.915 937.436 335.194ZM937.436 352.125C937.436 350.715 937.702 349.367 938.235 348.083C938.768 346.829 939.535 345.717 940.538 344.746C941.572 343.774 942.825 342.991 944.298 342.396C945.802 341.832 947.494 341.55 949.374 341.55C951.285 341.55 952.977 341.832 954.45 342.396C955.954 342.991 957.223 343.774 958.257 344.746C959.291 345.717 960.074 346.829 960.607 348.083C961.14 349.367 961.406 350.715 961.406 352.125C961.406 353.535 961.14 354.866 960.607 356.12C960.074 357.404 959.291 358.532 958.257 359.504C957.223 360.475 955.954 361.243 954.45 361.807C952.977 362.402 951.285 362.7 949.374 362.7C947.494 362.7 945.802 362.402 944.298 361.807C942.825 361.243 941.572 360.475 940.538 359.504C939.535 358.532 938.768 357.404 938.235 356.12C937.702 354.866 937.436 353.535 937.436 352.125ZM940.632 352.125C940.632 353.096 940.836 353.989 941.243 354.804C941.682 355.618 942.277 356.308 943.029 356.872C943.812 357.467 944.737 357.921 945.802 358.235C946.867 358.548 948.058 358.705 949.374 358.705C950.69 358.705 951.881 358.548 952.946 358.235C954.043 357.921 954.983 357.467 955.766 356.872C956.549 356.308 957.145 355.618 957.552 354.804C957.991 353.989 958.21 353.096 958.21 352.125C958.21 351.153 957.991 350.26 957.552 349.446C957.145 348.631 956.549 347.926 955.766 347.331C954.983 346.767 954.043 346.328 952.946 346.015C951.881 345.701 950.69 345.545 949.374 345.545C948.058 345.545 946.867 345.701 945.802 346.015C944.737 346.328 943.812 346.767 943.029 347.331C942.277 347.926 941.682 348.631 941.243 349.446C940.836 350.26 940.632 351.153 940.632 352.125ZM937.436 375.126C937.436 373.904 937.624 372.87 938 372.024C938.376 371.209 938.893 370.536 939.551 370.003C940.209 369.502 941.008 369.141 941.948 368.922C942.888 368.703 943.922 368.593 945.05 368.593L957.693 368.593L957.693 365.209L960.607 365.209L960.842 368.781L967.234 369.251L967.234 372.494L960.842 372.494L960.842 378.651L957.693 378.651L957.693 372.494L945.003 372.494C943.593 372.494 942.496 372.745 941.713 373.246C940.961 373.779 940.585 374.703 940.585 376.019C940.585 376.426 940.648 376.865 940.773 377.335C940.898 377.805 941.039 378.228 941.196 378.604L938.282 379.356C938.063 378.729 937.875 378.04 937.718 377.288C937.53 376.567 937.436 375.847 937.436 375.126ZM928.177 384.192C928.177 383.659 928.224 383.174 928.318 382.735C928.381 382.296 928.49 381.889 928.647 381.513L931.702 382.265C931.639 382.516 931.577 382.798 931.514 383.111C931.42 383.424 931.373 383.722 931.373 384.004C931.373 385.32 931.843 386.385 932.783 387.2C933.692 388.046 934.851 388.704 936.261 389.174L937.953 389.691L960.842 380.526L960.842 384.521L948.199 389.174C947.196 389.519 946.131 389.879 945.003 390.255C943.906 390.662 942.825 391.038 941.76 391.383L941.76 391.571C942.794 391.916 943.875 392.245 945.003 392.558C946.131 392.871 947.196 393.185 948.199 393.498L960.842 397.587L960.842 401.347L936.12 392.746C934.992 392.339 933.942 391.884 932.971 391.383C932 390.882 931.169 390.286 930.48 389.597C929.759 388.908 929.195 388.124 928.788 387.247C928.381 386.37 928.177 385.351 928.177 384.192ZM928.365 405.755L960.842 405.755L960.842 408.951L958.21 409.28L958.21 409.421C959.087 410.455 959.839 411.583 960.466 412.805C961.093 414.059 961.406 415.359 961.406 416.706C961.406 418.179 961.124 419.479 960.56 420.607C960.027 421.735 959.244 422.675 958.21 423.427C957.207 424.179 955.985 424.743 954.544 425.119C953.134 425.527 951.536 425.73 949.75 425.73C947.807 425.73 946.068 425.464 944.533 424.931C943.029 424.399 941.744 423.678 940.679 422.769C939.614 421.861 938.799 420.811 938.235 419.62C937.702 418.43 937.436 417.176 937.436 415.86C937.436 414.795 937.671 413.73 938.141 412.664C938.611 411.63 939.253 410.581 940.068 409.515L936.073 409.609L928.365 409.609L928.365 405.755ZM940.679 415.202C940.679 416.142 940.883 417.004 941.29 417.787C941.729 418.602 942.324 419.291 943.076 419.855C943.859 420.451 944.815 420.905 945.943 421.218C947.071 421.563 948.34 421.735 949.75 421.735C951.003 421.735 952.147 421.626 953.181 421.406C954.215 421.187 955.092 420.827 955.813 420.325C956.565 419.855 957.145 419.229 957.552 418.445C957.959 417.693 958.163 416.785 958.163 415.719C958.163 414.748 957.897 413.761 957.364 412.758C956.831 411.787 956.064 410.737 955.061 409.609L943.076 409.609C942.199 410.643 941.572 411.646 941.196 412.617C940.851 413.589 940.679 414.45 940.679 415.202ZM938 431.826L960.842 431.826L960.842 435.68L938 435.68L938 431.826ZM965.542 433.8C965.542 433.048 965.777 432.405 966.247 431.873C966.717 431.371 967.312 431.121 968.033 431.121C968.785 431.121 969.38 431.371 969.819 431.873C970.289 432.405 970.524 433.048 970.524 433.8C970.524 434.552 970.289 435.178 969.819 435.68C969.38 436.212 968.785 436.479 968.033 436.479C967.312 436.479 966.717 436.212 966.247 435.68C965.777 435.178 965.542 434.552 965.542 433.8ZM938 443.392L960.842 443.392L960.842 446.588L957.552 446.917L957.552 447.058C958.649 448.155 959.557 449.298 960.278 450.489C961.03 451.711 961.406 453.121 961.406 454.719C961.406 457.132 960.654 458.886 959.15 459.983C957.646 461.111 955.421 461.675 952.476 461.675L938 461.675L938 457.821L951.959 457.821C954.121 457.821 955.672 457.476 956.612 456.787C957.583 456.098 958.069 455.001 958.069 453.497C958.069 452.306 957.771 451.257 957.176 450.348C956.581 449.439 955.703 448.405 954.544 447.246L938 447.246L938 443.392ZM927.472 476.803C927.472 475.393 927.613 474.109 927.895 472.949C928.146 471.79 928.537 470.787 929.07 469.941C929.603 469.127 930.245 468.484 930.997 468.014C931.749 467.576 932.626 467.356 933.629 467.356C934.6 467.356 935.525 467.654 936.402 468.249C937.279 468.845 938.078 469.659 938.799 470.693L938.987 470.693C939.332 470.129 939.802 469.644 940.397 469.236C941.024 468.86 941.791 468.672 942.7 468.672C943.671 468.672 944.517 468.939 945.238 469.471C945.959 470.004 946.523 470.568 946.93 471.163L947.118 471.163C947.745 470.411 948.575 469.722 949.609 469.095C950.674 468.5 951.896 468.202 953.275 468.202C954.528 468.202 955.656 468.422 956.659 468.86C957.662 469.33 958.508 469.957 959.197 470.74C959.918 471.524 960.466 472.432 960.842 473.466C961.218 474.532 961.406 475.644 961.406 476.803C961.406 477.43 961.343 478.01 961.218 478.542C961.124 479.106 960.999 479.608 960.842 480.046L960.842 487.989L957.881 487.989L957.881 483.289C957.348 483.822 956.675 484.261 955.86 484.605C955.045 484.981 954.152 485.169 953.181 485.169C951.959 485.169 950.847 484.95 949.844 484.511C948.873 484.073 948.042 483.477 947.353 482.725C946.695 481.973 946.178 481.08 945.802 480.046C945.426 479.044 945.238 477.963 945.238 476.803C945.238 476.239 945.301 475.66 945.426 475.064C945.583 474.469 945.786 473.905 946.037 473.372C945.692 472.965 945.301 472.62 944.862 472.338C944.455 472.056 943.938 471.915 943.311 471.915C942.59 471.915 941.995 472.197 941.525 472.761C941.055 473.325 940.82 474.391 940.82 475.957L940.82 480.375C940.82 483.039 940.381 485.028 939.504 486.344C938.658 487.692 937.279 488.365 935.368 488.365C934.303 488.365 933.3 488.099 932.36 487.566C931.389 487.034 930.543 486.266 929.822 485.263C929.101 484.261 928.537 483.039 928.13 481.597C927.691 480.187 927.472 478.589 927.472 476.803ZM947.823 476.803C947.823 477.461 947.948 478.072 948.199 478.636C948.45 479.232 948.81 479.749 949.28 480.187C949.75 480.657 950.314 481.018 950.972 481.268C951.661 481.519 952.429 481.644 953.275 481.644C954.967 481.644 956.267 481.174 957.176 480.234C958.116 479.294 958.586 478.151 958.586 476.803C958.586 475.456 958.116 474.312 957.176 473.372C956.267 472.432 954.967 471.962 953.275 471.962C952.429 471.962 951.661 472.088 950.972 472.338C950.314 472.589 949.75 472.934 949.28 473.372C948.81 473.842 948.45 474.359 948.199 474.923C947.948 475.519 947.823 476.145 947.823 476.803ZM930.151 477.367C930.151 478.464 930.292 479.451 930.574 480.328C930.825 481.237 931.169 482.005 931.608 482.631C932.015 483.258 932.501 483.744 933.065 484.088C933.629 484.433 934.209 484.605 934.804 484.605C935.869 484.605 936.606 484.214 937.013 483.43C937.42 482.647 937.624 481.503 937.624 479.999L937.624 476.051C937.624 475.613 937.655 475.127 937.718 474.594C937.749 474.093 937.843 473.592 938 473.09C937.405 472.276 936.778 471.68 936.12 471.304C935.462 470.928 934.804 470.74 934.146 470.74C932.924 470.74 931.953 471.32 931.232 472.479C930.511 473.67 930.151 475.299 930.151 477.367Z" fill="#3C2B84"/>
<g filter="url(#filter2_d_1_90)">
<path d="M463 120C463 106.745 473.745 96 487 96H819C832.255 96 843 106.745 843 120V472C843 485.255 832.255 496 819 496H487C473.745 496 463 485.255 463 472V120Z" fill="#CDEEC8"/>
<path d="M487 97H819C831.703 97 842 107.297 842 120V472C842 484.703 831.703 495 819 495H487C474.297 495 464 484.703 464 472V120C464 107.297 474.297 97 487 97Z" stroke="#465B43" stroke-width="2"/>
</g>
<path d="M512.936 173.768C508.797 173.768 505.576 171.933 503.272 168.264C500.968 164.595 499.816 159.325 499.816 152.456C499.816 145.587 500.968 140.36 503.272 136.776C505.576 133.192 508.797 131.4 512.936 131.4C517.032 131.4 520.232 133.192 522.536 136.776C524.84 140.36 525.992 145.587 525.992 152.456C525.992 159.325 524.84 164.595 522.536 168.264C520.232 171.933 517.032 173.768 512.936 173.768ZM512.936 169.544C514.131 169.544 515.197 169.224 516.136 168.584C517.117 167.901 517.949 166.877 518.632 165.512C519.357 164.104 519.912 162.333 520.296 160.2C520.68 158.024 520.872 155.443 520.872 152.456C520.872 149.469 520.68 146.909 520.296 144.776C519.912 142.643 519.357 140.915 518.632 139.592C517.949 138.227 517.117 137.224 516.136 136.584C515.197 135.944 514.131 135.624 512.936 135.624C511.741 135.624 510.653 135.944 509.672 136.584C508.691 137.224 507.837 138.227 507.112 139.592C506.429 140.915 505.896 142.643 505.512 144.776C505.128 146.909 504.936 149.469 504.936 152.456C504.936 158.429 505.661 162.781 507.112 165.512C508.605 168.2 510.547 169.544 512.936 169.544ZM548.269 173V161.736H529.901V158.28L547.373 132.168H553.261V157.512H558.829V161.736H553.261V173H548.269ZM535.469 157.512H548.269V145.672C548.269 144.563 548.29 143.261 548.333 141.768C548.418 140.232 548.503 138.909 548.589 137.8H548.333C547.821 138.781 547.287 139.741 546.733 140.68C546.178 141.619 545.602 142.579 545.005 143.56L535.469 157.512Z" fill="#465B43"/>
<path d="M782 300.32L813.488 300.32L813.488 304.304L800.288 304.304L800.288 318.944L813.488 318.944L813.488 322.976L782 322.976L782 318.944L796.832 318.944L796.832 304.304L782 304.304L782 300.32ZM781.424 336.624C781.424 334.672 782 333.04 783.152 331.728C784.304 330.448 785.936 329.808 788.048 329.808C790.608 329.808 792.56 330.944 793.904 333.216C795.28 335.488 796.24 339.12 796.784 344.112C797.52 344.112 798.24 344.033 798.944 343.873C799.648 343.744 800.272 343.504 800.816 343.152C801.36 342.8 801.792 342.304 802.112 341.665C802.464 341.056 802.64 340.272 802.64 339.312C802.64 337.968 802.384 336.704 801.872 335.52C801.36 334.336 800.784 333.28 800.144 332.352L802.88 330.816C803.584 331.904 804.256 333.232 804.896 334.8C805.568 336.368 805.904 338.096 805.904 339.984C805.904 342.832 805.024 344.896 803.264 346.176C801.536 347.456 799.216 348.097 796.304 348.097L782 348.096L782 344.832L784.784 344.496L784.784 344.352C783.856 343.232 783.056 342.032 782.384 340.752C781.744 339.472 781.424 338.096 781.424 336.624ZM784.592 337.776C784.592 338.896 784.848 339.952 785.36 340.944C785.904 341.936 786.688 342.992 787.712 344.112L794.192 344.112C793.936 342.16 793.632 340.512 793.28 339.168C792.928 337.856 792.512 336.784 792.032 335.952C791.552 335.152 790.992 334.56 790.352 334.176C789.744 333.824 789.072 333.648 788.336 333.648C786.992 333.648 786.032 334.048 785.456 334.848C784.88 335.648 784.592 336.624 784.592 337.776ZM782 355.436L805.328 355.436L805.328 358.7L801.968 359.036L801.968 359.18C803.088 360.3 804.016 361.468 804.752 362.684C805.52 363.932 805.904 365.372 805.904 367.004C805.904 369.468 805.136 371.26 803.6 372.38C802.064 373.532 799.792 374.108 796.784 374.108L782 374.108L782 370.172L796.256 370.172C798.464 370.172 800.048 369.82 801.008 369.116C802 368.412 802.496 367.292 802.496 365.756C802.496 364.54 802.192 363.468 801.584 362.54C800.976 361.612 800.08 360.556 798.896 359.372L782 359.372L782 355.436ZM781.424 389.654C781.424 386.71 782.48 384.358 784.592 382.598C786.704 380.87 789.712 380.006 793.616 380.006C795.504 380.006 797.2 380.278 798.704 380.822C800.24 381.398 801.536 382.15 802.592 383.078C803.648 384.006 804.464 385.078 805.04 386.294C805.616 387.51 805.904 388.79 805.904 390.134C805.904 391.478 805.664 392.646 805.184 393.638C804.704 394.63 804.048 395.638 803.216 396.662L807.2 396.47L816.176 396.47L816.176 400.454L782 400.454L782 397.19L784.736 396.854L784.736 396.71C783.84 395.782 783.056 394.71 782.384 393.494C781.744 392.31 781.424 391.03 781.424 389.654ZM784.736 390.518C784.736 391.606 784.992 392.63 785.504 393.59C786.048 394.55 786.864 395.51 787.952 396.47L800.144 396.47C801.04 395.478 801.664 394.518 802.016 393.59C802.4 392.694 802.592 391.766 802.592 390.806C802.592 389.878 802.368 388.998 801.92 388.166C801.504 387.366 800.896 386.662 800.096 386.054C799.328 385.446 798.4 384.966 797.312 384.614C796.224 384.262 795.008 384.086 793.664 384.086C790.848 384.086 788.656 384.646 787.088 385.766C785.52 386.886 784.736 388.47 784.736 390.518ZM781.424 417.383C781.424 415.943 781.696 414.567 782.24 413.255C782.784 411.975 783.568 410.839 784.592 409.847C785.648 408.855 786.928 408.055 788.432 407.447C789.968 406.871 791.696 406.583 793.616 406.583C795.568 406.583 797.296 406.871 798.8 407.447C800.336 408.055 801.632 408.855 802.688 409.847C803.744 410.839 804.544 411.975 805.088 413.255C805.632 414.567 805.904 415.943 805.904 417.383C805.904 418.823 805.632 420.183 805.088 421.463C804.544 422.775 803.744 423.927 802.688 424.919C801.632 425.911 800.336 426.695 798.8 427.271C797.296 427.879 795.568 428.183 793.616 428.183C791.696 428.183 789.968 427.879 788.432 427.271C786.928 426.695 785.648 425.911 784.592 424.919C783.568 423.927 782.784 422.775 782.24 421.463C781.696 420.183 781.424 418.823 781.424 417.383ZM784.688 417.383C784.688 418.375 784.896 419.287 785.312 420.119C785.76 420.951 786.368 421.655 787.136 422.231C787.936 422.839 788.88 423.303 789.968 423.623C791.056 423.943 792.272 424.103 793.616 424.103C794.96 424.103 796.176 423.943 797.264 423.623C798.384 423.303 799.344 422.839 800.144 422.231C800.944 421.655 801.552 420.951 801.968 420.119C802.416 419.287 802.64 418.375 802.64 417.383C802.64 416.391 802.416 415.479 801.968 414.647C801.552 413.815 800.944 413.095 800.144 412.487C799.344 411.911 798.384 411.463 797.264 411.143C796.176 410.823 794.96 410.663 793.616 410.663C792.272 410.663 791.056 410.823 789.968 411.143C788.88 411.463 787.936 411.911 787.136 412.487C786.368 413.095 785.76 413.815 785.312 414.647C784.896 415.479 784.688 416.391 784.688 417.383ZM782 448.679L802.112 448.679L802.112 438.935L782 438.935L782 434.999L802.112 434.999L802.112 431.831L805.088 431.831L805.328 434.999L808.4 434.999C810.832 434.999 812.752 435.591 814.16 436.775C815.568 437.991 816.272 439.815 816.272 442.247C816.272 443.015 816.192 443.767 816.032 444.503C815.872 445.271 815.664 445.943 815.408 446.519L812.432 445.703C812.848 444.743 813.056 443.703 813.056 442.583C813.056 441.431 812.64 440.535 811.808 439.895C811.008 439.255 809.84 438.935 808.304 438.935L805.328 438.935L805.328 448.679L809.024 448.679C811.424 448.679 813.312 449.223 814.688 450.311C816.064 451.431 816.752 453.159 816.752 455.495C816.752 456.231 816.672 456.919 816.512 457.559C816.384 458.231 816.208 458.839 815.984 459.383L812.96 458.519C813.344 457.655 813.536 456.775 813.536 455.879C813.536 453.703 812.032 452.615 809.024 452.615L805.328 452.615L805.328 457.559L802.112 457.559L802.112 452.615L782 452.615L782 448.679Z" fill="#465B43"/>
<g filter="url(#filter3_d_1_90)">
<path d="M309 88C309 74.7452 319.745 64 333 64H665C678.255 64 689 74.7452 689 88V440C689 453.255 678.255 464 665 464H333C319.745 464 309 453.255 309 440V88Z" fill="#F2BA89"/>
<path d="M333 65H665C677.703 65 688 75.2975 688 88V440C688 452.703 677.703 463 665 463H333C320.297 463 310 452.703 310 440V88C310 75.2975 320.297 65 333 65Z" stroke="#7C1D19" stroke-width="2"/>
</g>
<path d="M358.936 141.768C354.797 141.768 351.576 139.933 349.272 136.264C346.968 132.595 345.816 127.325 345.816 120.456C345.816 113.587 346.968 108.36 349.272 104.776C351.576 101.192 354.797 99.4 358.936 99.4C363.032 99.4 366.232 101.192 368.536 104.776C370.84 108.36 371.992 113.587 371.992 120.456C371.992 127.325 370.84 132.595 368.536 136.264C366.232 139.933 363.032 141.768 358.936 141.768ZM358.936 137.544C360.131 137.544 361.197 137.224 362.136 136.584C363.117 135.901 363.949 134.877 364.632 133.512C365.357 132.104 365.912 130.333 366.296 128.2C366.68 126.024 366.872 123.443 366.872 120.456C366.872 117.469 366.68 114.909 366.296 112.776C365.912 110.643 365.357 108.915 364.632 107.592C363.949 106.227 363.117 105.224 362.136 104.584C361.197 103.944 360.131 103.624 358.936 103.624C357.741 103.624 356.653 103.944 355.672 104.584C354.691 105.224 353.837 106.227 353.112 107.592C352.429 108.915 351.896 110.643 351.512 112.776C351.128 114.909 350.936 117.469 350.936 120.456C350.936 126.429 351.661 130.781 353.112 133.512C354.605 136.2 356.547 137.544 358.936 137.544ZM389.917 141.768C388.295 141.768 386.802 141.597 385.437 141.256C384.114 140.957 382.898 140.552 381.789 140.04C380.679 139.485 379.677 138.867 378.781 138.184C377.927 137.501 377.159 136.776 376.477 136.008L379.165 132.552C380.402 133.832 381.831 134.963 383.453 135.944C385.117 136.925 387.165 137.416 389.597 137.416C392.071 137.416 394.098 136.755 395.677 135.432C397.255 134.067 398.045 132.232 398.045 129.928C398.045 128.733 397.81 127.645 397.341 126.664C396.914 125.64 396.189 124.765 395.165 124.04C394.141 123.315 392.797 122.76 391.133 122.376C389.469 121.992 387.421 121.8 384.989 121.8V117.768C387.165 117.768 388.978 117.576 390.429 117.192C391.922 116.808 393.117 116.275 394.013 115.592C394.951 114.909 395.613 114.099 395.997 113.16C396.381 112.221 396.573 111.219 396.573 110.152C396.573 108.147 395.933 106.568 394.653 105.416C393.415 104.264 391.709 103.688 389.533 103.688C387.826 103.688 386.247 104.072 384.797 104.84C383.389 105.608 382.066 106.611 380.829 107.848L378.013 104.52C379.591 103.027 381.319 101.811 383.197 100.872C385.117 99.8907 387.293 99.4 389.725 99.4C391.517 99.4 393.159 99.6347 394.653 100.104C396.146 100.573 397.426 101.256 398.493 102.152C399.602 103.005 400.455 104.072 401.053 105.352C401.65 106.632 401.949 108.104 401.949 109.768C401.949 112.243 401.266 114.269 399.901 115.848C398.535 117.427 396.743 118.643 394.525 119.496V119.752C395.762 120.051 396.914 120.499 397.981 121.096C399.047 121.651 399.986 122.376 400.797 123.272C401.607 124.125 402.226 125.128 402.653 126.28C403.122 127.432 403.357 128.712 403.357 130.12C403.357 131.912 402.994 133.533 402.269 134.984C401.586 136.435 400.626 137.672 399.389 138.696C398.194 139.677 396.786 140.445 395.165 141C393.543 141.512 391.794 141.768 389.917 141.768Z" fill="#945219"/>
<path d="M629 204.32L660.488 204.32L660.488 214.16C660.488 215.76 660.328 217.232 660.008 218.576C659.72 219.952 659.224 221.12 658.52 222.08C657.816 223.072 656.904 223.84 655.784 224.384C654.664 224.928 653.288 225.2 651.656 225.2C649.192 225.2 647.224 224.56 645.752 223.28C644.28 222 643.272 220.272 642.728 218.096L629 226.112L629 221.6L642.296 214.016L642.296 208.304L629 208.304L629 204.32ZM645.56 208.304L645.56 213.584C645.56 216.048 646.056 217.936 647.048 219.248C648.072 220.56 649.608 221.216 651.656 221.216C653.736 221.216 655.192 220.56 656.024 219.248C656.856 217.936 657.272 216.048 657.272 213.584L657.272 208.304L645.56 208.304ZM628.424 240.251C628.424 238.683 628.696 237.211 629.24 235.835C629.816 234.491 630.616 233.307 631.64 232.283C632.696 231.291 633.976 230.507 635.48 229.931C636.984 229.355 638.696 229.067 640.616 229.067C642.536 229.067 644.248 229.355 645.752 229.931C647.288 230.539 648.584 231.323 649.64 232.283C650.696 233.275 651.496 234.395 652.04 235.643C652.616 236.891 652.904 238.187 652.904 239.531C652.904 241.003 652.648 242.315 652.136 243.467C651.624 244.651 650.888 245.627 649.928 246.395C648.968 247.195 647.816 247.803 646.472 248.219C645.128 248.635 643.624 248.843 641.96 248.843C641.544 248.843 641.128 248.827 640.712 248.795C640.328 248.795 639.992 248.763 639.704 248.699L639.704 232.955C637.208 233.115 635.224 233.883 633.752 235.259C632.312 236.667 631.592 238.491 631.592 240.731C631.592 241.851 631.752 242.875 632.072 243.803C632.424 244.763 632.872 245.675 633.416 246.539L630.824 247.931C630.184 246.907 629.624 245.771 629.144 244.523C628.664 243.275 628.424 241.851 628.424 240.251ZM642.536 232.907L642.536 245.387C644.904 245.387 646.696 244.875 647.912 243.851C649.16 242.859 649.784 241.451 649.784 239.627C649.784 238.795 649.624 237.995 649.304 237.227C648.984 236.491 648.504 235.819 647.864 235.211C647.256 234.603 646.504 234.091 645.608 233.675C644.712 233.291 643.688 233.035 642.536 232.907ZM628.424 260.704C628.424 259.04 628.728 257.456 629.336 255.952C629.944 254.448 630.712 253.136 631.64 252.016L634.28 253.984C633.448 255.008 632.776 256.048 632.264 257.104C631.752 258.192 631.496 259.44 631.496 260.848C631.496 262.384 631.848 263.536 632.552 264.304C633.256 265.072 634.12 265.456 635.144 265.456C635.752 265.456 636.28 265.296 636.728 264.976C637.176 264.656 637.56 264.24 637.88 263.728C638.232 263.248 638.536 262.688 638.792 262.048C639.048 261.408 639.304 260.768 639.56 260.128C639.848 259.296 640.168 258.464 640.52 257.632C640.904 256.8 641.352 256.048 641.864 255.376C642.408 254.736 643.032 254.208 643.736 253.792C644.44 253.376 645.288 253.168 646.28 253.168C647.208 253.168 648.072 253.344 648.872 253.696C649.704 254.08 650.408 254.608 650.984 255.28C651.592 255.984 652.056 256.832 652.376 257.824C652.728 258.816 652.904 259.936 652.904 261.184C652.904 262.656 652.648 264 652.136 265.216C651.624 266.464 651 267.536 650.264 268.432L647.768 266.56C648.376 265.76 648.872 264.928 649.256 264.064C649.64 263.2 649.832 262.256 649.832 261.232C649.832 259.76 649.496 258.672 648.824 257.968C648.152 257.296 647.368 256.96 646.472 256.96C645.928 256.96 645.448 257.104 645.032 257.392C644.648 257.68 644.296 258.064 643.976 258.544C643.688 259.024 643.416 259.568 643.16 260.176C642.936 260.816 642.696 261.472 642.44 262.144C642.12 262.976 641.784 263.808 641.432 264.64C641.08 265.504 640.632 266.272 640.088 266.944C639.576 267.616 638.936 268.16 638.168 268.576C637.4 269.024 636.472 269.248 635.384 269.248C634.424 269.248 633.528 269.056 632.696 268.672C631.864 268.32 631.128 267.776 630.488 267.04C629.848 266.336 629.352 265.44 629 264.352C628.616 263.296 628.424 262.08 628.424 260.704ZM619.16 274.717L652.328 274.717L652.328 277.981L649.64 278.317L649.64 278.461C650.536 279.517 651.304 280.669 651.944 281.917C652.584 283.197 652.904 284.525 652.904 285.901C652.904 287.405 652.616 288.733 652.04 289.885C651.496 291.037 650.696 291.997 649.64 292.765C648.616 293.533 647.368 294.109 645.896 294.493C644.456 294.909 642.824 295.117 641 295.117C639.016 295.117 637.24 294.845 635.672 294.301C634.136 293.757 632.824 293.021 631.736 292.093C630.648 291.165 629.816 290.093 629.24 288.877C628.696 287.661 628.424 286.381 628.424 285.037C628.424 283.949 628.664 282.861 629.144 281.773C629.624 280.717 630.28 279.645 631.112 278.557L627.032 278.653L619.16 278.653L619.16 274.717ZM631.736 284.365C631.736 285.325 631.944 286.205 632.36 287.005C632.808 287.837 633.416 288.541 634.184 289.117C634.984 289.725 635.96 290.189 637.112 290.509C638.264 290.861 639.56 291.037 641 291.037C642.28 291.037 643.448 290.925 644.504 290.701C645.56 290.477 646.456 290.109 647.192 289.597C647.96 289.117 648.552 288.477 648.968 287.677C649.384 286.909 649.592 285.981 649.592 284.893C649.592 283.901 649.32 282.893 648.776 281.869C648.232 280.877 647.448 279.805 646.424 278.653L634.184 278.653C633.288 279.709 632.648 280.733 632.264 281.725C631.912 282.717 631.736 283.597 631.736 284.365ZM628.424 310.414C628.424 308.974 628.696 307.598 629.24 306.286C629.784 305.006 630.568 303.87 631.592 302.878C632.648 301.886 633.928 301.086 635.432 300.478C636.968 299.902 638.696 299.614 640.616 299.614C642.568 299.614 644.296 299.902 645.8 300.478C647.336 301.086 648.632 301.886 649.688 302.878C650.744 303.87 651.544 305.006 652.088 306.286C652.632 307.598 652.904 308.974 652.904 310.414C652.904 311.854 652.632 313.214 652.088 314.494C651.544 315.806 650.744 316.958 649.688 317.95C648.632 318.942 647.336 319.726 645.8 320.302C644.296 320.91 642.568 321.214 640.616 321.214C638.696 321.214 636.968 320.91 635.432 320.302C633.928 319.726 632.648 318.942 631.592 317.95C630.568 316.958 629.784 315.806 629.24 314.494C628.696 313.214 628.424 311.854 628.424 310.414ZM631.688 310.414C631.688 311.406 631.896 312.318 632.312 313.15C632.76 313.982 633.368 314.686 634.136 315.262C634.936 315.87 635.88 316.334 636.968 316.654C638.056 316.974 639.272 317.134 640.616 317.134C641.96 317.134 643.176 316.974 644.264 316.654C645.384 316.334 646.344 315.87 647.144 315.262C647.944 314.686 648.552 313.982 648.968 313.15C649.416 312.318 649.64 311.406 649.64 310.414C649.64 309.422 649.416 308.51 648.968 307.678C648.552 306.846 647.944 306.126 647.144 305.518C646.344 304.942 645.384 304.494 644.264 304.174C643.176 303.854 641.96 303.694 640.616 303.694C639.272 303.694 638.056 303.854 636.968 304.174C635.88 304.494 634.936 304.942 634.136 305.518C633.368 306.126 632.76 306.846 632.312 307.678C631.896 308.51 631.688 309.422 631.688 310.414ZM629 327.358L652.328 327.358L652.328 330.622L648.968 330.958L648.968 331.102C650.088 332.222 651.016 333.39 651.752 334.606C652.52 335.854 652.904 337.294 652.904 338.926C652.904 341.39 652.136 343.182 650.6 344.302C649.064 345.454 646.792 346.03 643.784 346.03L629 346.03L629 342.094L643.256 342.094C645.464 342.094 647.048 341.742 648.008 341.038C649 340.334 649.496 339.214 649.496 337.678C649.496 336.462 649.192 335.39 648.584 334.462C647.976 333.534 647.08 332.478 645.896 331.294L629 331.294L629 327.358ZM628.424 359.704C628.424 358.04 628.728 356.456 629.336 354.952C629.944 353.448 630.712 352.136 631.64 351.016L634.28 352.984C633.448 354.008 632.776 355.048 632.264 356.104C631.752 357.192 631.496 358.44 631.496 359.848C631.496 361.384 631.848 362.536 632.552 363.304C633.256 364.072 634.12 364.456 635.144 364.456C635.752 364.456 636.28 364.296 636.728 363.976C637.176 363.656 637.56 363.24 637.88 362.728C638.232 362.248 638.536 361.688 638.792 361.048C639.048 360.408 639.304 359.768 639.56 359.128C639.848 358.296 640.168 357.464 640.52 356.632C640.904 355.8 641.352 355.048 641.864 354.376C642.408 353.736 643.032 353.208 643.736 352.792C644.44 352.376 645.288 352.168 646.28 352.168C647.208 352.168 648.072 352.344 648.872 352.696C649.704 353.08 650.408 353.608 650.984 354.28C651.592 354.984 652.056 355.832 652.376 356.824C652.728 357.816 652.904 358.936 652.904 360.184C652.904 361.656 652.648 363 652.136 364.216C651.624 365.464 651 366.536 650.264 367.432L647.768 365.56C648.376 364.76 648.872 363.928 649.256 363.064C649.64 362.2 649.832 361.256 649.832 360.232C649.832 358.76 649.496 357.672 648.824 356.968C648.152 356.296 647.368 355.96 646.472 355.96C645.928 355.96 645.448 356.104 645.032 356.392C644.648 356.68 644.296 357.064 643.976 357.544C643.688 358.024 643.416 358.568 643.16 359.176C642.936 359.816 642.696 360.472 642.44 361.144C642.12 361.976 641.784 362.808 641.432 363.64C641.08 364.504 640.632 365.272 640.088 365.944C639.576 366.616 638.936 367.16 638.168 367.576C637.4 368.024 636.472 368.248 635.384 368.248C634.424 368.248 633.528 368.056 632.696 367.672C631.864 367.32 631.128 366.776 630.488 366.04C629.848 365.336 629.352 364.44 629 363.352C628.616 362.296 628.424 361.08 628.424 359.704ZM629 373.717L652.328 373.717L652.328 377.653L629 377.653L629 373.717ZM657.128 375.733C657.128 374.965 657.368 374.309 657.848 373.765C658.328 373.253 658.936 372.997 659.672 372.997C660.44 372.997 661.048 373.253 661.496 373.765C661.976 374.309 662.216 374.965 662.216 375.733C662.216 376.501 661.976 377.141 661.496 377.653C661.048 378.197 660.44 378.469 659.672 378.469C658.936 378.469 658.328 378.197 657.848 377.653C657.368 377.141 657.128 376.501 657.128 375.733ZM629 390.57L652.328 382.17L652.328 386.25L639.08 390.666C637.928 391.018 636.776 391.37 635.624 391.722C634.472 392.106 633.336 392.474 632.216 392.826L632.216 393.018C633.336 393.37 634.472 393.722 635.624 394.074C636.776 394.426 637.928 394.778 639.08 395.13L652.328 399.546L652.328 403.434L629 395.178L629 390.57ZM628.424 417.204C628.424 415.636 628.696 414.164 629.24 412.788C629.816 411.444 630.616 410.26 631.64 409.236C632.696 408.244 633.976 407.46 635.48 406.884C636.984 406.308 638.696 406.02 640.616 406.02C642.536 406.02 644.248 406.308 645.752 406.884C647.288 407.492 648.584 408.276 649.64 409.236C650.696 410.228 651.496 411.348 652.04 412.596C652.616 413.844 652.904 415.14 652.904 416.484C652.904 417.956 652.648 419.268 652.136 420.42C651.624 421.604 650.888 422.58 649.928 423.348C648.968 424.148 647.816 424.756 646.472 425.172C645.128 425.589 643.624 425.797 641.96 425.797C641.544 425.797 641.128 425.78 640.712 425.748C640.328 425.748 639.992 425.716 639.704 425.652L639.704 409.908C637.208 410.068 635.224 410.836 633.752 412.212C632.312 413.62 631.592 415.444 631.592 417.684C631.592 418.804 631.752 419.828 632.072 420.756C632.424 421.716 632.872 422.628 633.416 423.492L630.824 424.884C630.184 423.86 629.624 422.724 629.144 421.476C628.664 420.228 628.424 418.804 628.424 417.204ZM642.536 409.86L642.536 422.34C644.904 422.34 646.696 421.828 647.912 420.804C649.16 419.812 649.784 418.404 649.784 416.58C649.784 415.748 649.624 414.948 649.304 414.18C648.984 413.444 648.504 412.772 647.864 412.164C647.256 411.556 646.504 411.044 645.608 410.628C644.712 410.244 643.688 409.988 642.536 409.86Z" fill="#945219"/>
<g filter="url(#filter4_d_1_90)">
<path d="M154 56C154 42.7452 164.745 32 178 32H510C523.255 32 534 42.7452 534 56V408C534 421.255 523.255 432 510 432H178C164.745 432 154 421.255 154 408V56Z" fill="#E284A0"/>
<path d="M178 33H510C522.703 33 533 43.2975 533 56V408C533 420.703 522.703 431 510 431H178C165.297 431 155 420.703 155 408V56C155 43.2975 165.297 33 178 33Z" stroke="#6C1A45" stroke-width="2"/>
</g>
<path d="M203.936 109.768C199.797 109.768 196.576 107.933 194.272 104.264C191.968 100.595 190.816 95.3253 190.816 88.456C190.816 81.5867 191.968 76.36 194.272 72.776C196.576 69.192 199.797 67.4 203.936 67.4C208.032 67.4 211.232 69.192 213.536 72.776C215.84 76.36 216.992 81.5867 216.992 88.456C216.992 95.3253 215.84 100.595 213.536 104.264C211.232 107.933 208.032 109.768 203.936 109.768ZM203.936 105.544C205.131 105.544 206.197 105.224 207.136 104.584C208.117 103.901 208.949 102.877 209.632 101.512C210.357 100.104 210.912 98.3333 211.296 96.2C211.68 94.024 211.872 91.4427 211.872 88.456C211.872 85.4693 211.68 82.9093 211.296 80.776C210.912 78.6427 210.357 76.9147 209.632 75.592C208.949 74.2267 208.117 73.224 207.136 72.584C206.197 71.944 205.131 71.624 203.936 71.624C202.741 71.624 201.653 71.944 200.672 72.584C199.691 73.224 198.837 74.2267 198.112 75.592C197.429 76.9147 196.896 78.6427 196.512 80.776C196.128 82.9093 195.936 85.4693 195.936 88.456C195.936 94.4293 196.661 98.7813 198.112 101.512C199.605 104.2 201.547 105.544 203.936 105.544ZM222.373 109V105.864C225.445 102.792 228.175 100.019 230.565 97.544C232.954 95.0693 234.959 92.7867 236.581 90.696C238.202 88.5627 239.439 86.6213 240.293 84.872C241.146 83.08 241.573 81.352 241.573 79.688C241.573 77.3413 240.933 75.4213 239.653 73.928C238.373 72.4347 236.431 71.688 233.829 71.688C232.122 71.688 230.543 72.1787 229.093 73.16C227.642 74.0987 226.319 75.2507 225.125 76.616L222.117 73.608C223.823 71.7307 225.637 70.2373 227.557 69.128C229.477 67.976 231.781 67.4 234.469 67.4C238.266 67.4 241.253 68.5093 243.429 70.728C245.605 72.904 246.693 75.8053 246.693 79.432C246.693 81.352 246.266 83.2933 245.413 85.256C244.602 87.176 243.45 89.1813 241.957 91.272C240.506 93.32 238.757 95.4747 236.708 97.736C234.703 99.9547 232.485 102.323 230.053 104.84C231.162 104.755 232.314 104.669 233.509 104.584C234.703 104.499 235.834 104.456 236.901 104.456H248.741V109H222.373Z" fill="#6C1A45"/>
<path d="M474 166.32L505.488 166.32L505.488 175.296C505.488 177.056 505.328 178.656 505.008 180.096C504.688 181.568 504.16 182.816 503.424 183.84C502.72 184.864 501.776 185.664 500.592 186.24C499.408 186.816 497.952 187.104 496.224 187.104C494.56 187.104 493.12 186.816 491.904 186.24C490.688 185.696 489.68 184.912 488.88 183.888C488.08 182.864 487.472 181.632 487.056 180.192C486.672 178.784 486.48 177.216 486.48 175.488L486.48 170.304L474 170.304L474 166.32ZM489.744 170.304L489.744 175.008C489.744 177.76 490.256 179.792 491.28 181.104C492.336 182.448 493.984 183.12 496.224 183.12C498.496 183.12 500.064 182.416 500.928 181.008C501.824 179.632 502.272 177.568 502.272 174.816L502.272 170.304L489.744 170.304ZM474 193.123L497.328 193.123L497.328 196.387L493.104 196.723L493.104 196.867C494.576 197.667 495.744 198.627 496.608 199.747C497.472 200.899 497.904 202.147 497.904 203.491C497.904 204.419 497.744 205.252 497.424 205.988L493.968 205.219C494.096 204.836 494.192 204.483 494.256 204.163C494.32 203.843 494.352 203.443 494.352 202.963C494.352 201.971 493.952 200.931 493.152 199.843C492.352 198.787 490.96 197.859 488.976 197.059L474 197.059L474 193.123ZM473.424 213.968C473.424 212.016 474 210.384 475.152 209.072C476.304 207.792 477.936 207.152 480.048 207.152C482.608 207.152 484.56 208.288 485.904 210.56C487.28 212.832 488.24 216.464 488.784 221.456C489.52 221.456 490.24 221.376 490.944 221.216C491.648 221.088 492.272 220.848 492.816 220.496C493.36 220.144 493.792 219.648 494.112 219.008C494.464 218.4 494.64 217.616 494.64 216.656C494.64 215.312 494.384 214.048 493.872 212.864C493.36 211.68 492.784 210.624 492.144 209.696L494.88 208.16C495.584 209.248 496.256 210.576 496.896 212.144C497.568 213.712 497.904 215.44 497.904 217.328C497.904 220.176 497.024 222.24 495.264 223.52C493.536 224.8 491.216 225.44 488.304 225.44L474 225.44L474 222.176L476.784 221.84L476.784 221.696C475.856 220.576 475.056 219.376 474.384 218.096C473.744 216.816 473.424 215.44 473.424 213.968ZM476.592 215.12C476.592 216.24 476.848 217.296 477.36 218.288C477.904 219.28 478.688 220.336 479.712 221.456L486.192 221.456C485.936 219.504 485.632 217.856 485.28 216.512C484.928 215.2 484.512 214.128 484.032 213.296C483.552 212.496 482.992 211.904 482.352 211.52C481.744 211.168 481.072 210.992 480.336 210.992C478.992 210.992 478.032 211.392 477.456 212.192C476.88 212.992 476.592 213.968 476.592 215.12ZM473.424 241.996C473.424 240.46 473.696 239.02 474.24 237.676C474.784 236.332 475.568 235.164 476.592 234.172C477.648 233.212 478.928 232.444 480.432 231.868C481.968 231.324 483.696 231.052 485.616 231.052C487.568 231.052 489.296 231.356 490.8 231.964C492.336 232.572 493.632 233.388 494.688 234.412C495.744 235.436 496.544 236.62 497.088 237.964C497.632 239.34 497.904 240.78 497.904 242.284C497.904 243.82 497.632 245.132 497.088 246.22C496.544 247.308 495.904 248.268 495.168 249.1L492.576 247.084C493.184 246.412 493.68 245.692 494.064 244.924C494.448 244.188 494.64 243.356 494.64 242.428C494.64 241.372 494.416 240.396 493.968 239.5C493.552 238.604 492.944 237.836 492.144 237.196C491.344 236.556 490.384 236.044 489.264 235.66C488.176 235.308 486.96 235.132 485.616 235.132C484.272 235.132 483.056 235.308 481.968 235.66C480.88 236.012 479.936 236.492 479.136 237.1C478.368 237.74 477.76 238.508 477.312 239.404C476.896 240.3 476.688 241.276 476.688 242.332C476.688 243.42 476.912 244.412 477.36 245.308C477.84 246.236 478.4 247.068 479.04 247.804L476.4 249.532C475.472 248.476 474.736 247.308 474.192 246.028C473.68 244.748 473.424 243.404 473.424 241.996ZM473.424 261.546C473.424 260.298 473.616 259.242 474 258.378C474.384 257.546 474.912 256.858 475.584 256.314C476.256 255.802 477.072 255.434 478.032 255.21C478.992 254.986 480.048 254.874 481.2 254.874L494.112 254.874L494.112 251.418L497.088 251.418L497.328 255.066L503.856 255.546L503.856 258.858L497.328 258.858L497.328 265.146L494.112 265.146L494.112 258.858L481.152 258.858C479.712 258.858 478.592 259.114 477.792 259.626C477.024 260.17 476.64 261.114 476.64 262.458C476.64 262.874 476.704 263.322 476.832 263.802C476.96 264.282 477.104 264.714 477.264 265.098L474.288 265.866C474.064 265.226 473.872 264.522 473.712 263.754C473.52 263.018 473.424 262.282 473.424 261.546ZM474 270.42L497.328 270.42L497.328 274.356L474 274.356L474 270.42ZM502.128 272.436C502.128 271.668 502.368 271.012 502.848 270.468C503.328 269.956 503.936 269.7 504.672 269.7C505.44 269.7 506.048 269.956 506.496 270.468C506.976 271.012 507.216 271.668 507.216 272.436C507.216 273.204 506.976 273.844 506.496 274.356C506.048 274.9 505.44 275.172 504.672 275.172C503.936 275.172 503.328 274.9 502.848 274.356C502.368 273.844 502.128 273.204 502.128 272.436ZM473.424 291.449C473.424 289.913 473.696 288.473 474.24 287.129C474.784 285.785 475.568 284.617 476.592 283.625C477.648 282.665 478.928 281.897 480.432 281.321C481.968 280.777 483.696 280.505 485.616 280.505C487.568 280.505 489.296 280.809 490.8 281.417C492.336 282.025 493.632 282.841 494.688 283.865C495.744 284.889 496.544 286.073 497.088 287.417C497.632 288.793 497.904 290.233 497.904 291.737C497.904 293.273 497.632 294.585 497.088 295.673C496.544 296.761 495.904 297.721 495.168 298.553L492.576 296.537C493.184 295.865 493.68 295.145 494.064 294.377C494.448 293.641 494.64 292.809 494.64 291.881C494.64 290.825 494.416 289.849 493.968 288.953C493.552 288.057 492.944 287.289 492.144 286.649C491.344 286.009 490.384 285.497 489.264 285.113C488.176 284.761 486.96 284.585 485.616 284.585C484.272 284.585 483.056 284.761 481.968 285.113C480.88 285.465 479.936 285.945 479.136 286.553C478.368 287.193 477.76 287.961 477.312 288.857C476.896 289.753 476.688 290.729 476.688 291.785C476.688 292.873 476.912 293.865 477.36 294.761C477.84 295.689 478.4 296.521 479.04 297.257L476.4 298.985C475.472 297.929 474.736 296.761 474.192 295.481C473.68 294.201 473.424 292.857 473.424 291.449ZM473.424 309.031C473.424 307.079 474 305.447 475.152 304.135C476.304 302.855 477.936 302.215 480.048 302.215C482.608 302.215 484.56 303.351 485.904 305.623C487.28 307.895 488.24 311.527 488.784 316.519C489.52 316.519 490.24 316.439 490.944 316.279C491.648 316.151 492.272 315.911 492.816 315.559C493.36 315.207 493.792 314.711 494.112 314.071C494.464 313.463 494.64 312.679 494.64 311.719C494.64 310.375 494.384 309.111 493.872 307.927C493.36 306.743 492.784 305.687 492.144 304.759L494.88 303.223C495.584 304.311 496.256 305.639 496.896 307.207C497.568 308.775 497.904 310.503 497.904 312.391C497.904 315.239 497.024 317.303 495.264 318.583C493.536 319.863 491.216 320.503 488.304 320.503L474 320.503L474 317.239L476.784 316.903L476.784 316.759C475.856 315.639 475.056 314.439 474.384 313.159C473.744 311.879 473.424 310.503 473.424 309.031ZM476.592 310.183C476.592 311.303 476.848 312.359 477.36 313.351C477.904 314.343 478.688 315.399 479.712 316.519L486.192 316.519C485.936 314.567 485.632 312.919 485.28 311.575C484.928 310.263 484.512 309.191 484.032 308.359C483.552 307.559 482.992 306.967 482.352 306.583C481.744 306.231 481.072 306.055 480.336 306.055C478.992 306.055 478.032 306.455 477.456 307.255C476.88 308.055 476.592 309.031 476.592 310.183ZM473.424 332.018C473.424 330.514 473.872 329.442 474.768 328.802C475.664 328.162 476.976 327.842 478.704 327.842L508.176 327.842L508.176 331.778L478.416 331.778C477.776 331.778 477.328 331.89 477.072 332.114C476.816 332.338 476.688 332.594 476.688 332.882C476.688 333.01 476.688 333.122 476.688 333.218C476.688 333.346 476.72 333.522 476.784 333.746L473.808 334.274C473.68 334.018 473.584 333.714 473.52 333.362C473.456 333.01 473.424 332.562 473.424 332.018ZM473.424 361.254C473.424 359.654 473.648 358.15 474.096 356.742C474.576 355.366 475.344 354.166 476.4 353.142C477.488 352.15 478.896 351.366 480.624 350.79C482.352 350.214 484.48 349.926 487.008 349.926L505.488 349.926L505.488 353.91L486.912 353.91C485.024 353.91 483.44 354.102 482.16 354.486C480.88 354.87 479.856 355.382 479.088 356.022C478.32 356.694 477.76 357.478 477.408 358.374C477.088 359.27 476.928 360.23 476.928 361.254C476.928 362.31 477.088 363.286 477.408 364.182C477.76 365.078 478.32 365.862 479.088 366.534C479.856 367.206 480.88 367.734 482.16 368.118C483.44 368.502 485.024 368.694 486.912 368.694L505.488 368.694L505.488 372.534L487.008 372.534C484.48 372.534 482.352 372.246 480.624 371.67C478.896 371.094 477.488 370.294 476.4 369.27C475.344 368.278 474.576 367.094 474.096 365.718C473.648 364.342 473.424 362.854 473.424 361.254ZM474 381.007L505.488 381.007L505.488 384.991L474 384.991L474 381.007Z" fill="#6C1A45"/>
<g filter="url(#filter5_d_1_90)">
<path d="M0 24C0 10.7452 10.7452 0 24 0H356C369.255 0 380 10.7452 380 24V376C380 389.255 369.255 400 356 400H24C10.7452 400 0 389.255 0 376V24Z" fill="#F4A59F"/>
<path d="M24 1H356C368.703 1 379 11.2975 379 24V376C379 388.703 368.703 399 356 399H24C11.2975 399 1 388.703 1 376V24C1 11.2975 11.2975 1 24 1Z" stroke="#7C1D19" stroke-width="2"/>
</g>
<path d="M49.936 77.768C45.7973 77.768 42.576 75.9333 40.272 72.264C37.968 68.5947 36.816 63.3253 36.816 56.456C36.816 49.5867 37.968 44.36 40.272 40.776C42.576 37.192 45.7973 35.4 49.936 35.4C54.032 35.4 57.232 37.192 59.536 40.776C61.84 44.36 62.992 49.5867 62.992 56.456C62.992 63.3253 61.84 68.5947 59.536 72.264C57.232 75.9333 54.032 77.768 49.936 77.768ZM49.936 73.544C51.1307 73.544 52.1973 73.224 53.136 72.584C54.1173 71.9013 54.9493 70.8773 55.632 69.512C56.3573 68.104 56.912 66.3333 57.296 64.2C57.68 62.024 57.872 59.4427 57.872 56.456C57.872 53.4693 57.68 50.9093 57.296 48.776C56.912 46.6427 56.3573 44.9147 55.632 43.592C54.9493 42.2267 54.1173 41.224 53.136 40.584C52.1973 39.944 51.1307 39.624 49.936 39.624C48.7413 39.624 47.6533 39.944 46.672 40.584C45.6907 41.224 44.8373 42.2267 44.112 43.592C43.4293 44.9147 42.896 46.6427 42.512 48.776C42.128 50.9093 41.936 53.4693 41.936 56.456C41.936 62.4293 42.6613 66.7813 44.112 69.512C45.6053 72.2 47.5467 73.544 49.936 73.544ZM70.8685 77V72.648H80.2125V42.568H72.7885V39.176C74.6658 38.8347 76.2872 38.4293 77.6525 37.96C79.0605 37.448 80.3192 36.8507 81.4285 36.168H85.4605V72.648H93.9085V77H70.8685Z" fill="#7C1D19"/>
<path d="M301 58.32L332.488 58.32L332.488 66.192C332.488 71.056 331.144 74.752 328.456 77.28C325.768 79.808 321.912 81.072 316.888 81.072C314.392 81.072 312.152 80.752 310.168 80.112C308.216 79.472 306.552 78.528 305.176 77.28C303.832 76.032 302.792 74.496 302.056 72.672C301.352 70.848 301 68.752 301 66.384L301 58.32ZM304.264 62.304L304.264 65.904C304.264 69.584 305.368 72.336 307.576 74.16C309.784 76.016 312.888 76.944 316.888 76.944C320.888 76.944 323.944 76.016 326.056 74.16C328.168 72.336 329.224 69.584 329.224 65.904L329.224 62.304L304.264 62.304ZM300.424 96.9232C300.424 95.3552 300.696 93.8832 301.24 92.5072C301.816 91.1632 302.616 89.9792 303.64 88.9552C304.696 87.9632 305.976 87.1792 307.48 86.6032C308.984 86.0272 310.696 85.7392 312.616 85.7392C314.536 85.7392 316.248 86.0272 317.752 86.6032C319.288 87.2112 320.584 87.9952 321.64 88.9552C322.696 89.9472 323.496 91.0672 324.04 92.3152C324.616 93.5632 324.904 94.8592 324.904 96.2032C324.904 97.6752 324.648 98.9872 324.136 100.139C323.624 101.323 322.888 102.299 321.928 103.067C320.968 103.867 319.816 104.475 318.472 104.891C317.128 105.307 315.624 105.515 313.96 105.515C313.544 105.515 313.128 105.499 312.712 105.467C312.328 105.467 311.992 105.435 311.704 105.371L311.704 89.6272C309.208 89.7872 307.224 90.5552 305.752 91.9312C304.312 93.3392 303.592 95.1632 303.592 97.4032C303.592 98.5232 303.752 99.5472 304.072 100.475C304.424 101.435 304.872 102.347 305.416 103.211L302.824 104.603C302.184 103.579 301.624 102.443 301.144 101.195C300.664 99.9472 300.424 98.5232 300.424 96.9232ZM314.536 89.5792L314.536 102.059C316.904 102.059 318.696 101.547 319.912 100.523C321.16 99.5312 321.784 98.1232 321.784 96.2992C321.784 95.4672 321.624 94.6672 321.304 93.8992C320.984 93.1632 320.504 92.4912 319.864 91.8832C319.256 91.2752 318.504 90.7632 317.608 90.3472C316.712 89.9632 315.688 89.7072 314.536 89.5792ZM300.424 117.376C300.424 115.712 300.728 114.128 301.336 112.624C301.944 111.12 302.712 109.808 303.64 108.688L306.28 110.656C305.448 111.68 304.776 112.72 304.264 113.776C303.752 114.864 303.496 116.112 303.496 117.52C303.496 119.056 303.848 120.208 304.552 120.976C305.256 121.744 306.12 122.128 307.144 122.128C307.752 122.128 308.28 121.968 308.728 121.648C309.176 121.328 309.56 120.912 309.88 120.4C310.232 119.92 310.536 119.36 310.792 118.72C311.048 118.08 311.304 117.44 311.56 116.8C311.848 115.968 312.168 115.136 312.52 114.304C312.904 113.472 313.352 112.72 313.864 112.048C314.408 111.408 315.032 110.88 315.736 110.464C316.44 110.048 317.288 109.84 318.28 109.84C319.208 109.84 320.072 110.016 320.872 110.368C321.704 110.752 322.408 111.28 322.984 111.952C323.592 112.656 324.056 113.504 324.376 114.496C324.728 115.488 324.904 116.608 324.904 117.856C324.904 119.328 324.648 120.672 324.136 121.888C323.624 123.136 323 124.208 322.264 125.104L319.768 123.232C320.376 122.432 320.872 121.6 321.256 120.736C321.64 119.872 321.832 118.928 321.832 117.904C321.832 116.432 321.496 115.344 320.824 114.64C320.152 113.968 319.368 113.632 318.472 113.632C317.928 113.632 317.448 113.776 317.032 114.064C316.648 114.352 316.296 114.736 315.976 115.216C315.688 115.696 315.416 116.24 315.16 116.848C314.936 117.488 314.696 118.144 314.44 118.816C314.12 119.648 313.784 120.48 313.432 121.312C313.08 122.176 312.632 122.944 312.088 123.616C311.576 124.288 310.936 124.832 310.168 125.248C309.4 125.696 308.472 125.92 307.384 125.92C306.424 125.92 305.528 125.728 304.696 125.344C303.864 124.992 303.128 124.448 302.488 123.712C301.848 123.008 301.352 122.112 301 121.024C300.616 119.968 300.424 118.752 300.424 117.376ZM301 131.389L324.328 131.389L324.328 135.325L301 135.325L301 131.389ZM329.128 133.405C329.128 132.637 329.368 131.981 329.848 131.437C330.328 130.925 330.936 130.669 331.672 130.669C332.44 130.669 333.048 130.925 333.496 131.437C333.976 131.981 334.216 132.637 334.216 133.405C334.216 134.173 333.976 134.813 333.496 135.325C333.048 135.869 332.44 136.141 331.672 136.141C330.936 136.141 330.328 135.869 329.848 135.325C329.368 134.813 329.128 134.173 329.128 133.405ZM290.248 151.074C290.248 149.634 290.392 148.322 290.68 147.138C290.936 145.954 291.336 144.93 291.88 144.066C292.424 143.234 293.08 142.578 293.848 142.098C294.616 141.65 295.512 141.426 296.536 141.426C297.528 141.426 298.472 141.73 299.368 142.338C300.264 142.946 301.08 143.778 301.816 144.834L302.008 144.834C302.36 144.258 302.84 143.762 303.448 143.346C304.088 142.962 304.872 142.77 305.8 142.77C306.792 142.77 307.656 143.042 308.392 143.586C309.128 144.13 309.704 144.706 310.12 145.314L310.312 145.314C310.952 144.546 311.8 143.842 312.856 143.202C313.944 142.594 315.192 142.29 316.6 142.29C317.88 142.29 319.032 142.514 320.056 142.962C321.08 143.442 321.944 144.082 322.648 144.882C323.384 145.682 323.944 146.61 324.328 147.666C324.712 148.754 324.904 149.89 324.904 151.074C324.904 151.714 324.84 152.306 324.712 152.85C324.616 153.426 324.488 153.938 324.328 154.386L324.328 162.498L321.304 162.498L321.304 157.698C320.76 158.242 320.072 158.69 319.24 159.042C318.408 159.426 317.496 159.618 316.504 159.618C315.256 159.618 314.12 159.394 313.096 158.946C312.104 158.498 311.256 157.89 310.552 157.122C309.88 156.354 309.352 155.442 308.968 154.386C308.584 153.362 308.392 152.258 308.392 151.074C308.392 150.498 308.456 149.906 308.584 149.298C308.744 148.69 308.952 148.114 309.208 147.57C308.856 147.154 308.456 146.802 308.008 146.514C307.592 146.226 307.064 146.082 306.424 146.082C305.688 146.082 305.08 146.37 304.6 146.946C304.12 147.522 303.88 148.61 303.88 150.21L303.88 154.722C303.88 157.442 303.432 159.474 302.536 160.818C301.672 162.194 300.264 162.882 298.312 162.882C297.224 162.882 296.2 162.61 295.24 162.066C294.248 161.522 293.384 160.738 292.648 159.714C291.912 158.69 291.336 157.442 290.92 155.97C290.472 154.53 290.248 152.898 290.248 151.074ZM311.032 151.074C311.032 151.746 311.16 152.37 311.416 152.946C311.672 153.554 312.04 154.082 312.52 154.53C313 155.01 313.576 155.378 314.248 155.634C314.952 155.89 315.736 156.018 316.6 156.018C318.328 156.018 319.656 155.538 320.584 154.578C321.544 153.618 322.024 152.45 322.024 151.074C322.024 149.698 321.544 148.53 320.584 147.57C319.656 146.61 318.328 146.13 316.6 146.13C315.736 146.13 314.952 146.258 314.248 146.514C313.576 146.77 313 147.122 312.52 147.57C312.04 148.05 311.672 148.578 311.416 149.154C311.16 149.762 311.032 150.402 311.032 151.074ZM292.984 151.65C292.984 152.77 293.128 153.778 293.416 154.674C293.672 155.602 294.024 156.386 294.472 157.026C294.888 157.666 295.384 158.162 295.96 158.514C296.536 158.866 297.128 159.042 297.736 159.042C298.824 159.042 299.576 158.642 299.992 157.842C300.408 157.042 300.616 155.874 300.616 154.338L300.616 150.306C300.616 149.858 300.648 149.362 300.712 148.818C300.744 148.306 300.84 147.794 301 147.282C300.392 146.45 299.752 145.842 299.08 145.458C298.408 145.074 297.736 144.882 297.064 144.882C295.816 144.882 294.824 145.474 294.088 146.658C293.352 147.874 292.984 149.538 292.984 151.65ZM301 167.389L324.328 167.389L324.328 170.653L320.968 170.989L320.968 171.133C322.088 172.253 323.016 173.421 323.752 174.637C324.52 175.885 324.904 177.325 324.904 178.957C324.904 181.421 324.136 183.213 322.6 184.333C321.064 185.485 318.792 186.061 315.784 186.061L301 186.061L301 182.125L315.256 182.125C317.464 182.125 319.048 181.773 320.008 181.069C321 180.365 321.496 179.245 321.496 177.709C321.496 176.493 321.192 175.421 320.584 174.493C319.976 173.565 319.08 172.509 317.896 171.325L301 171.325L301 167.389ZM300.424 212.368C300.424 210.16 300.84 208.112 301.672 206.224C302.504 204.336 303.64 202.704 305.08 201.328L307.864 203.728C306.68 204.848 305.72 206.16 304.984 207.664C304.28 209.2 303.928 210.784 303.928 212.416C303.928 214.496 304.392 216.112 305.32 217.264C306.28 218.416 307.528 218.992 309.064 218.992C309.864 218.992 310.536 218.848 311.08 218.56C311.656 218.304 312.136 217.936 312.52 217.456C312.936 217.008 313.304 216.464 313.624 215.824C313.944 215.184 314.28 214.496 314.632 213.761L316.6 209.248C316.92 208.512 317.304 207.76 317.752 206.992C318.2 206.224 318.744 205.536 319.384 204.928C320.024 204.32 320.776 203.824 321.64 203.44C322.536 203.056 323.56 202.864 324.712 202.864C325.896 202.864 327 203.104 328.024 203.584C329.048 204.096 329.928 204.784 330.664 205.648C331.432 206.544 332.024 207.584 332.44 208.769C332.856 209.985 333.064 211.312 333.064 212.752C333.064 214.641 332.696 216.385 331.96 217.985C331.256 219.585 330.328 220.945 329.176 222.065L326.584 219.905C327.512 218.945 328.232 217.873 328.744 216.689C329.288 215.536 329.56 214.224 329.56 212.752C329.56 210.992 329.144 209.568 328.312 208.48C327.512 207.424 326.392 206.896 324.952 206.896C324.184 206.896 323.528 207.04 322.984 207.328C322.472 207.648 322.008 208.064 321.592 208.576C321.208 209.088 320.856 209.648 320.536 210.256C320.248 210.864 319.976 211.488 319.72 212.128L317.8 216.592C317.416 217.488 316.968 218.336 316.456 219.136C315.976 219.936 315.4 220.624 314.728 221.201C314.088 221.777 313.32 222.225 312.424 222.544C311.56 222.897 310.552 223.073 309.4 223.073C308.152 223.073 306.984 222.816 305.896 222.304C304.808 221.824 303.848 221.12 303.016 220.192C302.216 219.264 301.576 218.144 301.096 216.832C300.648 215.52 300.424 214.032 300.424 212.368ZM290.968 229.273C290.968 228.729 291.016 228.233 291.112 227.785C291.176 227.337 291.288 226.921 291.448 226.537L294.568 227.305C294.504 227.561 294.44 227.849 294.376 228.169C294.28 228.489 294.232 228.793 294.232 229.081C294.232 230.425 294.712 231.513 295.672 232.345C296.6 233.209 297.784 233.881 299.224 234.361L300.952 234.889L324.328 225.529L324.328 229.609L311.416 234.361C310.392 234.713 309.304 235.081 308.152 235.465C307.032 235.881 305.928 236.265 304.84 236.617L304.84 236.809C305.896 237.161 307 237.497 308.152 237.817C309.304 238.137 310.392 238.457 311.416 238.777L324.328 242.953L324.328 246.793L299.08 238.009C297.928 237.593 296.856 237.129 295.864 236.617C294.872 236.105 294.024 235.497 293.32 234.793C292.584 234.089 292.008 233.289 291.592 232.393C291.176 231.497 290.968 230.457 290.968 229.273ZM300.424 257.391C300.424 255.727 300.728 254.143 301.336 252.639C301.944 251.135 302.712 249.823 303.64 248.703L306.28 250.671C305.448 251.695 304.776 252.735 304.264 253.791C303.752 254.879 303.496 256.127 303.496 257.535C303.496 259.071 303.848 260.223 304.552 260.991C305.256 261.759 306.12 262.143 307.144 262.143C307.752 262.143 308.28 261.983 308.728 261.663C309.176 261.343 309.56 260.927 309.88 260.415C310.232 259.935 310.536 259.375 310.792 258.735C311.048 258.095 311.304 257.455 311.56 256.815C311.848 255.983 312.168 255.151 312.52 254.319C312.904 253.487 313.352 252.735 313.864 252.063C314.408 251.423 315.032 250.895 315.736 250.479C316.44 250.063 317.288 249.855 318.28 249.855C319.208 249.855 320.072 250.031 320.872 250.383C321.704 250.767 322.408 251.295 322.984 251.967C323.592 252.671 324.056 253.519 324.376 254.511C324.728 255.503 324.904 256.623 324.904 257.871C324.904 259.343 324.648 260.687 324.136 261.903C323.624 263.151 323 264.223 322.264 265.119L319.768 263.247C320.376 262.447 320.872 261.615 321.256 260.751C321.64 259.887 321.832 258.943 321.832 257.919C321.832 256.447 321.496 255.359 320.824 254.655C320.152 253.983 319.368 253.647 318.472 253.647C317.928 253.647 317.448 253.791 317.032 254.079C316.648 254.367 316.296 254.751 315.976 255.231C315.688 255.711 315.416 256.255 315.16 256.863C314.936 257.503 314.696 258.159 314.44 258.831C314.12 259.663 313.784 260.495 313.432 261.327C313.08 262.191 312.632 262.959 312.088 263.631C311.576 264.303 310.936 264.847 310.168 265.263C309.4 265.711 308.472 265.935 307.384 265.935C306.424 265.935 305.528 265.743 304.696 265.359C303.864 265.007 303.128 264.463 302.488 263.727C301.848 263.023 301.352 262.127 301 261.039C300.616 259.983 300.424 258.767 300.424 257.391ZM300.424 277.811C300.424 276.563 300.616 275.507 301 274.643C301.384 273.811 301.912 273.123 302.584 272.579C303.256 272.067 304.072 271.699 305.032 271.475C305.992 271.251 307.048 271.139 308.2 271.139L321.112 271.139L321.112 267.683L324.088 267.683L324.328 271.331L330.856 271.811L330.856 275.123L324.328 275.123L324.328 281.411L321.112 281.411L321.112 275.123L308.152 275.123C306.712 275.123 305.592 275.379 304.792 275.891C304.024 276.435 303.64 277.379 303.64 278.723C303.64 279.139 303.704 279.587 303.832 280.067C303.96 280.547 304.104 280.979 304.264 281.363L301.288 282.131C301.064 281.491 300.872 280.787 300.712 280.019C300.52 279.283 300.424 278.547 300.424 277.811ZM300.424 295.486C300.424 293.918 300.696 292.446 301.24 291.07C301.816 289.726 302.616 288.542 303.64 287.518C304.696 286.526 305.976 285.742 307.48 285.166C308.984 284.59 310.696 284.302 312.616 284.302C314.536 284.302 316.248 284.59 317.752 285.166C319.288 285.774 320.584 286.558 321.64 287.518C322.696 288.51 323.496 289.63 324.04 290.878C324.616 292.126 324.904 293.422 324.904 294.766C324.904 296.238 324.648 297.55 324.136 298.702C323.624 299.886 322.888 300.862 321.928 301.63C320.968 302.43 319.816 303.038 318.472 303.454C317.128 303.87 315.624 304.078 313.96 304.078C313.544 304.078 313.128 304.062 312.712 304.03C312.328 304.03 311.992 303.998 311.704 303.934L311.704 288.19C309.208 288.35 307.224 289.118 305.752 290.494C304.312 291.902 303.592 293.726 303.592 295.966C303.592 297.086 303.752 298.11 304.072 299.038C304.424 299.998 304.872 300.91 305.416 301.774L302.824 303.166C302.184 302.142 301.624 301.006 301.144 299.758C300.664 298.51 300.424 297.086 300.424 295.486ZM314.536 288.142L314.536 300.622C316.904 300.622 318.696 300.11 319.912 299.086C321.16 298.094 321.784 296.686 321.784 294.862C321.784 294.03 321.624 293.23 321.304 292.462C320.984 291.726 320.504 291.054 319.864 290.446C319.256 289.838 318.504 289.326 317.608 288.91C316.712 288.526 315.688 288.27 314.536 288.142ZM301 309.842L324.328 309.842L324.328 313.106L320.968 313.442L320.968 313.586C322.088 314.61 323.016 315.714 323.752 316.898C324.52 318.114 324.904 319.426 324.904 320.834C324.904 322.626 324.504 324.018 323.704 325.01C322.936 326.034 321.848 326.786 320.44 327.266C321.784 328.482 322.856 329.698 323.656 330.914C324.488 332.162 324.904 333.506 324.904 334.946C324.904 337.346 324.136 339.122 322.6 340.274C321.064 341.458 318.792 342.05 315.784 342.05L301 342.05L301 338.114L315.256 338.114C317.464 338.114 319.048 337.762 320.008 337.058C321 336.354 321.496 335.266 321.496 333.794C321.496 332.034 320.296 330.082 317.896 327.938L301 327.938L301 324.002L315.256 324.002C317.464 324.002 319.048 323.65 320.008 322.946C321 322.242 321.496 321.138 321.496 319.634C321.496 317.874 320.296 315.922 317.896 313.778L301 313.778L301 309.842ZM300.424 355.735C300.424 354.071 300.728 352.487 301.336 350.983C301.944 349.479 302.712 348.167 303.64 347.047L306.28 349.015C305.448 350.039 304.776 351.079 304.264 352.135C303.752 353.223 303.496 354.471 303.496 355.879C303.496 357.415 303.848 358.567 304.552 359.335C305.256 360.103 306.12 360.487 307.144 360.487C307.752 360.487 308.28 360.327 308.728 360.007C309.176 359.687 309.56 359.271 309.88 358.759C310.232 358.279 310.536 357.719 310.792 357.079C311.048 356.439 311.304 355.799 311.56 355.159C311.848 354.327 312.168 353.495 312.52 352.663C312.904 351.831 313.352 351.079 313.864 350.407C314.408 349.767 315.032 349.239 315.736 348.823C316.44 348.407 317.288 348.199 318.28 348.199C319.208 348.199 320.072 348.375 320.872 348.727C321.704 349.111 322.408 349.639 322.984 350.311C323.592 351.015 324.056 351.863 324.376 352.855C324.728 353.847 324.904 354.967 324.904 356.215C324.904 357.687 324.648 359.031 324.136 360.247C323.624 361.495 323 362.567 322.264 363.463L319.768 361.591C320.376 360.791 320.872 359.959 321.256 359.095C321.64 358.231 321.832 357.287 321.832 356.263C321.832 354.791 321.496 353.703 320.824 352.999C320.152 352.327 319.368 351.991 318.472 351.991C317.928 351.991 317.448 352.135 317.032 352.423C316.648 352.711 316.296 353.095 315.976 353.575C315.688 354.055 315.416 354.599 315.16 355.207C314.936 355.847 314.696 356.503 314.44 357.175C314.12 358.007 313.784 358.839 313.432 359.671C313.08 360.535 312.632 361.303 312.088 361.975C311.576 362.647 310.936 363.191 310.168 363.607C309.4 364.055 308.472 364.279 307.384 364.279C306.424 364.279 305.528 364.087 304.696 363.703C303.864 363.351 303.128 362.807 302.488 362.071C301.848 361.367 301.352 360.471 301 359.383C300.616 358.327 300.424 357.111 300.424 355.735Z" fill="#7C1D19"/>
<defs>
<filter id="filter0_d_1_90" x="772" y="160" width="386" height="406" filterUnits="userSpaceOnUse" color-interpolation-filters="sRGB">
<feFlood flood-opacity="0" result="BackgroundImageFix"/>
<feColorMatrix in="SourceAlpha" type="matrix" values="0 0 0 0 0 0 0 0 0 0 0 0 0 0 0 0 0 0 127 0" result="hardAlpha"/>
<feOffset dx="6" dy="6"/>
<feColorMatrix type="matrix" values="0 0 0 0 0.0352941 0 0 0 0 0.0431373 0 0 0 0 0.215686 0 0 0 1 0"/>
<feBlend mode="normal" in2="BackgroundImageFix" result="effect1_dropShadow_1_90"/>
<feBlend mode="normal" in="SourceGraphic" in2="effect1_dropShadow_1_90" result="shape"/>
</filter>
<filter id="filter1_d_1_90" x="617" y="128" width="386" height="406" filterUnits="userSpaceOnUse" color-interpolation-filters="sRGB">
<feFlood flood-opacity="0" result="BackgroundImageFix"/>
<feColorMatrix in="SourceAlpha" type="matrix" values="0 0 0 0 0 0 0 0 0 0 0 0 0 0 0 0 0 0 127 0" result="hardAlpha"/>
<feOffset dx="6" dy="6"/>
<feColorMatrix type="matrix" values="0 0 0 0 0.235294 0 0 0 0 0.168627 0 0 0 0 0.517647 0 0 0 1 0"/>
<feBlend mode="normal" in2="BackgroundImageFix" result="effect1_dropShadow_1_90"/>
<feBlend mode="normal" in="SourceGraphic" in2="effect1_dropShadow_1_90" result="shape"/>
</filter>
<filter id="filter2_d_1_90" x="463" y="96" width="386" height="406" filterUnits="userSpaceOnUse" color-interpolation-filters="sRGB">
<feFlood flood-opacity="0" result="BackgroundImageFix"/>
<feColorMatrix in="SourceAlpha" type="matrix" values="0 0 0 0 0 0 0 0 0 0 0 0 0 0 0 0 0 0 127 0" result="hardAlpha"/>
<feOffset dx="6" dy="6"/>
<feColorMatrix type="matrix" values="0 0 0 0 0.27451 0 0 0 0 0.356863 0 0 0 0 0.262745 0 0 0 1 0"/>
<feBlend mode="normal" in2="BackgroundImageFix" result="effect1_dropShadow_1_90"/>
<feBlend mode="normal" in="SourceGraphic" in2="effect1_dropShadow_1_90" result="shape"/>
</filter>
<filter id="filter3_d_1_90" x="309" y="64" width="386" height="406" filterUnits="userSpaceOnUse" color-interpolation-filters="sRGB">
<feFlood flood-opacity="0" result="BackgroundImageFix"/>
<feColorMatrix in="SourceAlpha" type="matrix" values="0 0 0 0 0 0 0 0 0 0 0 0 0 0 0 0 0 0 127 0" result="hardAlpha"/>
<feOffset dx="6" dy="6"/>
<feColorMatrix type="matrix" values="0 0 0 0 0.580392 0 0 0 0 0.321569 0 0 0 0 0.0980392 0 0 0 1 0"/>
<feBlend mode="normal" in2="BackgroundImageFix" result="effect1_dropShadow_1_90"/>
<feBlend mode="normal" in="SourceGraphic" in2="effect1_dropShadow_1_90" result="shape"/>
</filter>
<filter id="filter4_d_1_90" x="154" y="32" width="386" height="406" filterUnits="userSpaceOnUse" color-interpolation-filters="sRGB">
<feFlood flood-opacity="0" result="BackgroundImageFix"/>
<feColorMatrix in="SourceAlpha" type="matrix" values="0 0 0 0 0 0 0 0 0 0 0 0 0 0 0 0 0 0 127 0" result="hardAlpha"/>
<feOffset dx="6" dy="6"/>
<feColorMatrix type="matrix" values="0 0 0 0 0.423529 0 0 0 0 0.101961 0 0 0 0 0.270588 0 0 0 1 0"/>
<feBlend mode="normal" in2="BackgroundImageFix" result="effect1_dropShadow_1_90"/>
<feBlend mode="normal" in="SourceGraphic" in2="effect1_dropShadow_1_90" result="shape"/>
</filter>
<filter id="filter5_d_1_90" x="0" y="0" width="386" height="406" filterUnits="userSpaceOnUse" color-interpolation-filters="sRGB">
<feFlood flood-opacity="0" result="BackgroundImageFix"/>
<feColorMatrix in="SourceAlpha" type="matrix" values="0 0 0 0 0 0 0 0 0 0 0 0 0 0 0 0 0 0 127 0" result="hardAlpha"/>
<feOffset dx="6" dy="6"/>
<feColorMatrix type="matrix" values="0 0 0 0 0.486275 0 0 0 0 0.113725 0 0 0 0 0.0980392 0 0 0 1 0"/>
<feBlend mode="normal" in2="BackgroundImageFix" result="effect1_dropShadow_1_90"/>
<feBlend mode="normal" in="SourceGraphic" in2="effect1_dropShadow_1_90" result="shape"/>
</filter>
</defs>
</svg>
