<svg width="62" height="62" viewBox="0 0 62 62" fill="none" xmlns="http://www.w3.org/2000/svg">
<path d="M31 61.5C14.1553 61.5 0.5 47.8447 0.5 31C0.5 14.1553 14.1553 0.5 31 0.5C47.8447 0.5 61.5 14.1553 61.5 31C61.5 47.8447 47.8447 61.5 31 61.5Z" stroke="white"/>
<path fill-rule="evenodd" clip-rule="evenodd" d="M1 31C1 14.4315 14.4315 1 31 1C47.5685 1 61 14.4315 61 31C61 47.5685 47.5685 61 31 61C14.4315 61 1 47.5685 1 31Z" fill="white" fill-opacity="0.3"/>
<path fill-rule="evenodd" clip-rule="evenodd" d="M30.5956 25.1553L30.6563 26.1562L29.6447 26.0336C25.9626 25.5638 22.7458 23.9707 20.0145 21.295L18.6792 19.9674L18.3353 20.9478C17.6069 23.1333 18.0723 25.4413 19.5896 26.9936C20.3989 27.8514 20.2168 27.974 18.8208 27.4634C18.3353 27.3 17.9104 27.1774 17.87 27.2387C17.7283 27.3817 18.2139 29.2403 18.5983 29.9756C19.1243 30.9969 20.1966 31.9977 21.37 32.59L22.3614 33.0598L21.1879 33.0802C20.055 33.0802 20.0145 33.1007 20.1359 33.5296C20.5405 34.8572 22.1388 36.2665 23.9192 36.8793L25.1735 37.3082L24.081 37.9618C22.4625 38.9014 20.5608 39.4324 18.659 39.4733C17.7486 39.4937 17 39.5754 17 39.6367C17 39.8409 19.4682 40.9847 20.9047 41.4341C25.214 42.7617 30.3326 42.1898 34.1766 39.9226C36.9078 38.309 39.6391 35.1023 40.9137 31.9977C41.6016 30.3433 42.2894 27.3204 42.2894 25.8702C42.2894 24.9307 42.3501 24.8081 43.4831 23.6847C44.1507 23.0311 44.7779 22.3163 44.8993 22.112C45.1016 21.7239 45.0814 21.7239 44.0496 22.0712C42.3299 22.6839 42.0871 22.6022 42.9368 21.6831C43.564 21.0295 44.3126 19.8448 44.3126 19.4976C44.3126 19.4363 44.0091 19.5384 43.6652 19.7223C43.301 19.9265 42.4917 20.2329 41.8848 20.4167L40.7923 20.764L39.801 20.0899C39.2547 19.7223 38.4859 19.3138 38.0813 19.1912C37.0495 18.9053 35.4714 18.9461 34.5407 19.2729C32.0118 20.1921 30.4135 22.5614 30.5956 25.1553Z" fill="#090B37"/>
</svg>
